<svg xmlns="http://www.w3.org/2000/svg" viewBox="0 0 358.1 167.63"><defs><style>.cls-1{fill:#004d5b;}.cls-2{fill:#009a9f;}.cls-3{fill:#ffb515;}</style></defs><g id="Layer_2" data-name="Layer 2"><g id="microsite-_layout_partner" data-name="microsite- layout partner"><path class="cls-1" d="M22.36,47.63c.2-12.14,9-23.93,2.21-36.24C20.19,3.65,9.9-2.32,5.54,9c-3,7.71.31,17.8,3.76,25.11,2.94,5.93,7.64,9.27,12,13.9"/><path class="cls-1" d="M44.83,72.13c.65-8.8,5.42-25.34-2.83-32.06-10.24-7.94-11.32,9.19-9.06,15.38C35.54,61.51,40.65,67,44.7,71.79"/><path class="cls-1" d="M32.3,90.72c-5.43-8.53-9.11-19.64-16.68-26.61-7.82-7.66-18.74-8-14.78,5A31.05,31.05,0,0,0,13.2,86c5.75,4.13,12.52,3.6,19,5.51"/><path class="cls-1" d="M77.64,120.68c4.86-10,7.28-41.4-7.66-45.28-10.66-2.73-8.51,14.79-6.5,20.28,2.64,7.22,8.9,12.72,12.43,19.21a41.1,41.1,0,0,1,1.73,5.79"/><path class="cls-1" d="M68.89,136.92c-3.89-10.64-9-20.45-21.6-22.08-11.3-1.33-16.79,6.91-6.58,13.69,8.09,5.22,16.93,5.11,25.42,8.24a4.35,4.35,0,0,0,2.33,1.09"/><path class="cls-2" d="M83.23,164.83a178.42,178.42,0,0,0-7.38-33.34,104.49,104.49,0,0,0-6.51-15.29,94.85,94.85,0,0,0-8.79-13.37c-12.7-16.53-29-31.13-36.44-51.09C19.36,39,18.41,25.27,15.43,12.06c-.18-.78-1.38-.45-1.21.33,2.68,11.84,3.67,24,7.31,35.65,3.18,10.18,8.64,19.3,15.09,27.74C42.87,84,49.87,91.53,56.36,99.52a117.36,117.36,0,0,1,9.45,13,95.8,95.8,0,0,1,7.52,15.65c4.49,11.9,7,24.46,8.69,37,.11.79,1.32.45,1.21-.34Z"/><path class="cls-2" d="M45.47,83.8c-.41-6.52-.79-13-1.69-19.53A95.82,95.82,0,0,0,39,44.74c-.27-.75-1.48-.43-1.21.33a96.15,96.15,0,0,1,4.77,19.11c.93,6.5,1.28,13.07,1.7,19.62.05.8,1.3.81,1.25,0Z"/><path class="cls-2" d="M55.39,97.24c-7.68.44-15.17-2.43-21.72-6.21A79.43,79.43,0,0,1,14.62,75.44a65.44,65.44,0,0,1-7.48-9.9.63.63,0,0,0-1.08.63A74.76,74.76,0,0,0,21.7,84C28,89.35,35,94,42.85,96.61a33.46,33.46,0,0,0,12.54,1.88c.8,0,.8-1.3,0-1.25Z"/><path class="cls-2" d="M76.45,131.82A70.59,70.59,0,0,0,78.09,110a84.7,84.7,0,0,0-5-21.69c-.27-.75-1.48-.43-1.2.33a84,84,0,0,1,5,21.36,69.39,69.39,0,0,1-1.59,21.45c-.18.78,1,1.12,1.2.33Z"/><path class="cls-2" d="M79.71,146.45c-3.42-1.19-5.46-4-7.73-6.68a96,96,0,0,0-7-7.42,51.17,51.17,0,0,0-16.72-10.62c-.75-.3-1.08.91-.34,1.2a50.73,50.73,0,0,1,17.26,11.34c2.42,2.38,4.7,4.92,6.87,7.53s4.18,4.77,7.32,5.85c.76.27,1.09-.94.33-1.2Z"/><path class="cls-2" d="M22.43,18.87c-1.9,2.53-3.53,5.26-5.21,7.94l1-.13a44.3,44.3,0,0,1-6.71-6.34c-.48-.63-1.57,0-1.08.63a45.3,45.3,0,0,0,6.9,6.59.63.63,0,0,0,1-.12C20,24.76,21.61,22,23.51,19.5c.48-.65-.6-1.27-1.08-.63Z"/><path class="cls-2" d="M22.84,28.45c-1.5,2.07-2.68,4.36-4.3,6.35l.76-.1a26.23,26.23,0,0,1-4.51-3.08c-.61-.52-1.5.36-.89.89a28.78,28.78,0,0,0,4.77,3.27.62.62,0,0,0,.75-.1c1.69-2.07,2.94-4.44,4.5-6.6.47-.65-.61-1.28-1.08-.63Z"/><path class="cls-2" d="M20.2,75.82c.26,1.3.48,2.61.61,3.93a16.7,16.7,0,0,1,.05,3.87l.6-.46c-2.58,0-5.6.25-7.71-1.51-.62-.51-1.51.37-.89.88,2.43,2,5.62,1.89,8.6,1.88a.63.63,0,0,0,.6-.46,25.74,25.74,0,0,0-.65-8.47c-.16-.78-1.37-.45-1.21.34Z"/><path class="cls-2" d="M13.25,68.1c-.35,2.41-.77,5-.13,7.38l.61-.79a9.11,9.11,0,0,1-2.93-.5,13.56,13.56,0,0,0-3.08-.61c-.81,0-.81,1.21,0,1.25,2.05.09,3.93,1.2,6,1.11a.63.63,0,0,0,.6-.79c-.58-2.18-.19-4.53.13-6.72a.65.65,0,0,0-.44-.77.63.63,0,0,0-.77.44Z"/><path class="cls-2" d="M43.31,49.91a17.83,17.83,0,0,1-2.11,5.51l1-.12A59.33,59.33,0,0,0,37.34,51a.65.65,0,0,0-.89,0,.63.63,0,0,0,0,.88,57.7,57.7,0,0,1,4.84,4.27.64.64,0,0,0,1-.13,19.2,19.2,0,0,0,2.24-5.81c.19-.78-1-1.12-1.21-.33Z"/><path class="cls-2" d="M54.69,121,57,127.39l.61-.79c-2,0-4,.9-6,.53a.65.65,0,0,0-.77.44.63.63,0,0,0,.44.76c2.16.4,4.21-.47,6.36-.48a.63.63,0,0,0,.6-.79L55.9,120.7a.64.64,0,0,0-.77-.43.62.62,0,0,0-.44.76Z"/><path class="cls-2" d="M78.63,95.48a32.62,32.62,0,0,1-2.88,5.33l.85-.22a16,16,0,0,1-5.39-3.92c-.53-.62-1.41.27-.89.88A17,17,0,0,0,76,101.67a.65.65,0,0,0,.86-.23,32.21,32.21,0,0,0,2.88-5.33c.33-.73-.74-1.36-1.08-.63Z"/><path class="cls-2" d="M76.22,89.93A28.84,28.84,0,0,1,74,94l.71-.29A12.47,12.47,0,0,1,70.11,91a.65.65,0,0,0-.88,0,.63.63,0,0,0,0,.89c1.55,1.21,3.22,2.59,5.19,3a.63.63,0,0,0,.7-.28,28.84,28.84,0,0,0,2.18-4.11.64.64,0,0,0-.23-.85.63.63,0,0,0-.85.22Z"/><path class="cls-2" d="M69.34,81.57a.82.82,0,0,1,.56,1.55A.82.82,0,0,1,69.34,81.57Z"/><path class="cls-2" d="M67.23,85.85a.82.82,0,0,1,.56,1.54A.82.82,0,0,1,67.23,85.85Z"/><path class="cls-2" d="M65.08,81.57a.82.82,0,0,1,.57,1.54A.82.82,0,0,1,65.08,81.57Z"/><path class="cls-2" d="M42.67,118.57a.82.82,0,0,1,.56,1.54A.82.82,0,0,1,42.67,118.57Z"/><path class="cls-2" d="M42.69,122.85a.82.82,0,0,1,.56,1.54A.82.82,0,0,1,42.69,122.85Z"/><path class="cls-2" d="M39,121.27a.82.82,0,0,1,.56,1.54A.82.82,0,0,1,39,121.27Z"/><path class="cls-2" d="M4.55,61.83a.82.82,0,0,1,.56,1.54A.82.82,0,0,1,4.55,61.83Z"/><path class="cls-2" d="M3.78,66.59a.82.82,0,0,1,.56,1.55A.82.82,0,0,1,3.78,66.59Z"/><path class="cls-2" d="M1.27,63.42A.82.82,0,0,1,1.83,65,.82.82,0,0,1,1.27,63.42Z"/><path class="cls-2" d="M34.61,47.34a.83.83,0,0,1,.57,1.55A.83.83,0,0,1,34.61,47.34Z"/><path class="cls-2" d="M35,43.11a.82.82,0,0,1,.56,1.55A.82.82,0,0,1,35,43.11Z"/><path class="cls-2" d="M37.78,58.64a.82.82,0,0,1,.56,1.55A.82.82,0,0,1,37.78,58.64Z"/><path class="cls-2" d="M10.31,30.52a.82.82,0,0,1,.56,1.55A.82.82,0,0,1,10.31,30.52Z"/><path class="cls-2" d="M8.56,24.16a.82.82,0,0,1,.56,1.54A.82.82,0,0,1,8.56,24.16Z"/><path class="cls-2" d="M8.15,14.57a.82.82,0,0,1,.56,1.55A.82.82,0,0,1,8.15,14.57Z"/><path class="cls-2" d="M20.63,14.88a.82.82,0,0,1,.56,1.54A.82.82,0,0,1,20.63,14.88Z"/><path class="cls-2" d="M16.69,8.34a.82.82,0,0,1,.56,1.54A.82.82,0,0,1,16.69,8.34Z"/><path class="cls-2" d="M9.73,6.21a.82.82,0,0,1,.56,1.54A.82.82,0,0,1,9.73,6.21Z"/><path class="cls-2" d="M16.27,39.44A.82.82,0,0,1,16.83,41,.82.82,0,0,1,16.27,39.44Z"/><path class="cls-2" d="M8.79,78.19a.82.82,0,0,1,.56,1.55A.82.82,0,0,1,8.79,78.19Z"/><path class="cls-2" d="M17.9,71.94a.83.83,0,0,1,.57,1.55A.83.83,0,0,1,17.9,71.94Z"/><path class="cls-2" d="M54.79,129.52a.82.82,0,0,1,.56,1.55A.82.82,0,0,1,54.79,129.52Z"/><path class="cls-2" d="M60.49,124.52a.82.82,0,0,1,.57,1.54A.82.82,0,0,1,60.49,124.52Z"/><path class="cls-1" d="M126.07,63.87a10.67,10.67,0,0,1,2.38,1.21c.64.47,1.36-.54.82-1.08a1.8,1.8,0,0,0-.84-.54c-.86-.18-1.22,1.15-.36,1.32a1,1,0,0,1,.24.19l.83-1.07a12,12,0,0,0-2.71-1.35c-.81-.33-1.16,1-.36,1.32Z"/><path class="cls-1" d="M124.14,63.33a13.28,13.28,0,0,0,2.5,1.7c.83.47,2.15,1.29,3.13.84,1.18-.53.33-2.18-.35-2.73A7.58,7.58,0,0,0,125,61.79a.69.69,0,0,0,0,1.37,7.45,7.45,0,0,1,3.08.73,1.47,1.47,0,0,1,.9.89c.1.34,0-.12.31-.15a.91.91,0,0,1-.36-.06,9.76,9.76,0,0,1-3.81-2.21c-.64-.61-1.6.36-1,1Z"/><path class="cls-1" d="M110.2,31.66a.65.65,0,0,0-.46-.75c-2.39-.71-5-1.49-7.53-1.05-1.07.18-2.9,1.55-1.91,2.77s3.18,1,4.46,1a11.52,11.52,0,0,0,5.32-.94A.64.64,0,0,0,110.2,31.66Z"/><path class="cls-1" d="M113.17,26.23a.67.67,0,0,0-.93.25c-1.38,2.5-.33,5.4.11,8a.59.59,0,0,0,.18.34c.12.63,1.18.73,1.31,0C114.38,32,116,28.36,113.17,26.23Z"/><path class="cls-1" d="M118.56,21.34c-.88-2.2-3.21-7.13-6.26-5a.68.68,0,0,0-.31.77c.78,2.35,3.09,4.86,5.55,5.41a.68.68,0,0,0,.83-.53A.57.57,0,0,0,118.56,21.34Z"/><path class="cls-1" d="M124.09,11.6c-.91-.65-2,.19-2.73.78a5.75,5.75,0,0,0-1.93,2.56.6.6,0,0,0,.21.66.78.78,0,0,0,1,.29,17.05,17.05,0,0,0,3.31-1.45A1.75,1.75,0,0,0,124.09,11.6Z"/><path class="cls-1" d="M120.36,9.77a.79.79,0,0,0,0-.3c-.68-1.52-2-3.13-3.68-3.42a.69.69,0,0,0-.86.66C115.86,9,118,10.3,119.9,11,120.68,11.33,121,10.15,120.36,9.77Z"/><path class="cls-1" d="M124.1,30.66l0,0c.73-1.45,0-3.93-.73-5.26a.68.68,0,0,0-1.24.16,6.26,6.26,0,0,0,.79,5.83c.5.72,1.68,0,1.18-.69Z"/><path class="cls-1" d="M126.43,27.05a.6.6,0,0,0-.61.43.68.68,0,0,0-.23,1.11c1.08,1.08,4.8,4.69,5.92,1.91C132.43,28.25,127.9,27.09,126.43,27.05Z"/><path class="cls-1" d="M125.28,51a.69.69,0,0,0-1,0c-2.08,2.17-.11,5.09,1,7.23.36.71,1.35.21,1.24-.47a.69.69,0,0,0,.39-.61C127.11,55.1,127,52.47,125.28,51Z"/><path class="cls-1" d="M134.07,52.44a8.56,8.56,0,0,0-4.55-.71c-.72.09-1,1.15-.18,1.35l.28.09a.72.72,0,0,0,.14.47c.75,1,4.77,3.28,5.63,1.44C135.9,54,135,52.91,134.07,52.44Z"/><path class="cls-1" d="M131.45,41.15a.68.68,0,0,0-1.07.14c-1.19,2.12.72,4.07.82,6.19,0,.88,1.4.89,1.36,0l0-.25a.6.6,0,0,0,.19-.3C133.24,45.09,132.94,42.45,131.45,41.15Z"/><path class="cls-1" d="M105.43,44a.7.7,0,0,0-.93-.25c-2.29,1.39-1.12,4.67-1.07,6.81a.64.64,0,0,0,.4.6.7.7,0,0,0,1.23.11C106.41,49.35,106.82,46.06,105.43,44Z"/><path class="cls-1" d="M106.9,54.9a.7.7,0,0,0-.61-1c-2.06-.09-4.29-1.74-6.35-.89-.87.36-2.2,1.52-1,2.38.93.7,2.63.54,3.72.55s2.45-.11,3.67-.12A.68.68,0,0,0,106.9,54.9Z"/><path class="cls-1" d="M112.4,51.94a.67.67,0,0,0-.83-.11c-2.45,1.42-1.82,4.42-1.79,6.81a.63.63,0,0,0,.42.6.67.67,0,0,0,1.11.25C112.93,57.51,114.13,54.18,112.4,51.94Z"/><path class="cls-1" d="M114.28,62.34a7.77,7.77,0,0,0-4.78.68c-.81.48-1.84,2.12-.92,2.95s2.28,0,3.1-.36A15.62,15.62,0,0,0,114.62,64a.75.75,0,0,0,.28-.71A.76.76,0,0,0,114.28,62.34Z"/><path class="cls-1" d="M128.91,83a.69.69,0,0,0-1.14.3c-1,2.7.49,5.23,1.52,7.66.32.75,1.33.21,1.22-.51a.59.59,0,0,0,.05-.2C130.76,87.84,130.75,84.86,128.91,83Z"/><path class="cls-1" d="M134.6,84.65a.71.71,0,0,0-.67.62.56.56,0,0,0,0,.91,15.32,15.32,0,0,0,4,2.62c1.14.43,3,.32,3.06-1.35C141.08,85.06,136.26,84.67,134.6,84.65Z"/><path class="cls-1" d="M134.72,73.7a.69.69,0,0,0-1.14.3c-.58,2.13.68,4.37,2,6a.57.57,0,0,0,.94,0,.59.59,0,0,0,.77-.63A7.85,7.85,0,0,0,134.72,73.7Z"/><path class="cls-1" d="M143.25,75.66c-.59-.69-1.82-.6-2.62-.53a5.06,5.06,0,0,0-2.64.72c-.63,0-.84,1.08-.12,1.37a7.59,7.59,0,0,0,4.14.85C143,77.9,144,76.55,143.25,75.66Z"/><path class="cls-1" d="M107.15,72.94c-.84-.91-1.84.36-2.21,1.07-.82,1.58-.07,3.87.33,5.47a.68.68,0,0,0,1.31-.36,2.1,2.1,0,0,0-.06-.24,6.3,6.3,0,0,0,.91-2.89C107.55,75.13,107.82,73.67,107.15,72.94Z"/><path class="cls-1" d="M108.47,82.64c-1.23,0-2.83-.32-4,.27-.75.39-2.22,1.24-1.9,2.32s1.72,1.35,2.69,1.06a9.79,9.79,0,0,0,3-1.83.73.73,0,0,0,.28-.47A.68.68,0,0,0,108.47,82.64Z"/><path class="cls-1" d="M113.3,80.83a.67.67,0,0,0-1.06.14,5.81,5.81,0,0,0,.18,5.81.56.56,0,0,0,.23.23.67.67,0,0,0,1.12-.05A5.66,5.66,0,0,0,113.3,80.83Z"/><path class="cls-1" d="M116.43,91.08a.57.57,0,0,0-.34-.19c-1.37-.23-3.1-.63-4.41,0-.93.46-1.72,1.92-.93,2.82s2.36.23,3.18,0a11.76,11.76,0,0,0,3-1.36C117.64,91.86,117.09,90.81,116.43,91.08Z"/><path class="cls-1" d="M120.31,89.19a.69.69,0,0,0-1.25.17,7,7,0,0,0,.55,4.38,1.26,1.26,0,0,0,1.88.19A7.84,7.84,0,0,0,120.31,89.19Z"/><path class="cls-1" d="M100.39,105.34a.52.52,0,0,0-.45-.37c-1.68-.27-7.77-.5-6.13,2.89,1,2.14,6-.35,7.16-1.38C101.49,106,101,105.29,100.39,105.34Z"/><path class="cls-1" d="M105.61,102.36a.69.69,0,0,0-1.07-.14c-1.55,1.77-1.21,4.76-.11,6.68a.76.76,0,0,0,.23.24.67.67,0,0,0,1.13,0A7,7,0,0,0,105.61,102.36Z"/><path class="cls-1" d="M109.56,113.36h-.15a.6.6,0,0,0-.58-.38c-1.59,0-3.49-.26-5,.39a1.8,1.8,0,0,0-.83,2.68c.75.84,2.44.43,3.35.22a9.6,9.6,0,0,0,2.74-1,.65.65,0,0,0,.49-.36,3.38,3.38,0,0,0,.46-.37A.69.69,0,0,0,109.56,113.36Z"/><path class="cls-1" d="M114.26,110.28c-3.1-.85-1.88,4.94-1.37,6.32a.72.72,0,0,0,.93.42.55.55,0,0,0,.76-.12C115.62,115.68,116.4,110.86,114.26,110.28Z"/><path class="cls-1" d="M118.55,122.17a.63.63,0,0,0-.65-.59c-1.69,0-3.34.14-4.62,1.38a1.55,1.55,0,0,0,0,2.53,3.81,3.81,0,0,0,3,.14,4.18,4.18,0,0,0,2.77-2.63A.64.64,0,0,0,118.55,122.17Z"/><path class="cls-1" d="M121.83,118.8a.69.69,0,0,0-1.25-.17,7.79,7.79,0,0,0-.4,5.22.76.76,0,0,0,.1.54,2,2,0,0,1,0,.26c.17.86,1.48.5,1.32-.37l0-.07C122.81,123.1,122.28,120,121.83,118.8Z"/><path class="cls-1" d="M131.74,118.82a.69.69,0,0,0-1.07-.14c-1.72,1.46-.94,4.81-.54,6.7.19.86,1.5.5,1.31-.37a.36.36,0,0,0,0-.1.61.61,0,0,0,.32-.28A6,6,0,0,0,131.74,118.82Z"/><path class="cls-1" d="M138.93,122.63a9.48,9.48,0,0,0-3.09-1.15.49.49,0,0,0-.48-.07h0c-.82,0-.86,1.13-.16,1.33a13.57,13.57,0,0,0,2.22,2c.67.5,2,1.43,2.71.61C141.05,124.32,139.76,123.11,138.93,122.63Z"/><path class="cls-1" d="M138.52,118.25c.31-1.92.55-4-.25-5.83a.68.68,0,0,0-1.07-.14c-1.88,1.67-.74,5.11.08,7,.34.81,1.51.11,1.17-.7l0-.1A.78.78,0,0,0,138.52,118.25Z"/><path class="cls-1" d="M141.86,115.39h0a.68.68,0,0,0-.64,1.14,8.73,8.73,0,0,0,4.65,2.37.69.69,0,0,0,.86-.66C146.82,115.82,143.76,115,141.86,115.39Z"/><path class="cls-2" d="M122.26,155c.06-9.6,3.69-18.72,4.29-28.27.32-5.16.5-10.33.37-15.49a131.76,131.76,0,0,0-1.38-15.1c-1.44-10.26-3.35-20.44-4.83-30.68a210.11,210.11,0,0,1-2.3-30.16c0-10.55.75-21.45,5.12-31.2.32-.73-.75-1.37-1.08-.63-3.8,8.48-5,17.8-5.23,27a191.79,191.79,0,0,0,1.51,29.63C120,70.35,121.9,80.5,123.48,90.7c.82,5.29,1.64,10.6,2,15.94a147.77,147.77,0,0,1,.06,15.75,82.8,82.8,0,0,1-.61,8.77c-.4,2.61-1,5.19-1.52,7.77C122.24,144.22,121,149.56,121,155a.63.63,0,0,0,1.25,0Z"/><path class="cls-2" d="M103.48,21.85C107,29.51,112.86,35.73,117,43a.63.63,0,0,0,1.08,0c3.82-7.37,7.56-15,14.13-20.35.62-.51-.27-1.39-.89-.89C124.71,27.2,120.9,34.92,117,42.38h1.08c-4.17-7.28-10-13.5-13.56-21.16-.33-.73-1.41-.1-1.07.63Z"/><path class="cls-2" d="M96.46,43.82c4.79,3.79,7.38,9.26,11.43,13.68s8.7,7.84,11.85,12.82a.63.63,0,0,0,1.08,0c4.36-9.77,9.92-18.93,15.58-28,.43-.69-.66-1.31-1.08-.63-5.66,9.06-11.21,18.21-15.58,28h1.08c-3.14-5-7.82-8.53-11.77-12.78-4.18-4.48-6.81-10.1-11.71-14-.62-.5-1.51.38-.88.88Z"/><path class="cls-2" d="M98.39,71a130.46,130.46,0,0,0,12.3,14.85,116.56,116.56,0,0,0,14.35,13,.64.64,0,0,0,.86-.23c3-4.4,5.91-8.85,8.52-13.49a55.84,55.84,0,0,0,6.11-14.31c.18-.78-1-1.11-1.21-.33a55.25,55.25,0,0,1-6.18,14.37c-2.56,4.51-5.42,8.84-8.32,13.13l.85-.22A115,115,0,0,1,111.57,85a128.94,128.94,0,0,1-12.1-14.6c-.46-.65-1.54,0-1.08.63Z"/><path class="cls-2" d="M94.09,99.46c9.91,11,22.21,19.68,31.07,31.62a.63.63,0,0,0,1,.13c6.28-7.33,14.53-12.66,20.66-20.14.51-.62-.37-1.51-.88-.89-6.13,7.48-14.38,12.82-20.67,20.14l1,.13c-8.93-12-21.28-20.81-31.27-31.87-.54-.6-1.42.29-.88.88Z"/><path class="cls-3" d="M123,1.22c-3.28,0-3.28,5.12,0,5.12S126.26,1.22,123,1.22Z"/><path class="cls-3" d="M105,19.31c-3.28,0-3.28,5.12,0,5.12S108.31,19.31,105,19.31Z"/><path class="cls-3" d="M132.81,19c-3.28,0-3.28,5.12,0,5.12S136.09,19,132.81,19Z"/><path class="cls-3" d="M97.68,41.91a2.54,2.54,0,0,0-3.27-.26,2.55,2.55,0,0,0,.8,5,3.3,3.3,0,0,0,2.47-1.09A2.6,2.6,0,0,0,97.68,41.91Z"/><path class="cls-3" d="M136.88,38.43c-3.28,0-3.28,5.12,0,5.12S140.15,38.43,136.88,38.43Z"/><path class="cls-3" d="M99.27,68.13c-3.27,0-3.27,5.12,0,5.12S102.55,68.13,99.27,68.13Z"/><path class="cls-3" d="M139.58,68.13c-3.27,0-3.27,5.12,0,5.12S142.86,68.13,139.58,68.13Z"/><path class="cls-3" d="M94.53,95.78c-3.28,0-3.28,5.12,0,5.12S97.81,95.78,94.53,95.78Z"/><path class="cls-3" d="M146.36,108.07c-3.28,0-3.28,5.12,0,5.12S149.64,108.07,146.36,108.07Z"/><path class="cls-2" d="M194.76,44.27c-1.93-12.42-1.16-24.84,8.48-33.77,5.39-5,14-10.81,22.35-10.49,20,.78-5,12.82-10,14.76-10.79,4.66-20,16.69-20.42,29.12"/><path class="cls-2" d="M190.14,55.92c.77-8.54-1.93-16.69-6.17-24.46-3.85-7.76-11.17-12-20.42-10.87-6.17.78-19.65,15.14-8.86,15.92,9.25,1.16,14.64-8.93,22.73.78,4.24,5,10.4,13.2,12.72,19.41"/><path class="cls-2" d="M213.26,43.11c2.31,12.43,12.33,19,25,19.8,7.32.39,20-7.76,8.09-12.42-7.32-2.72-14.64,1.94-22.34-1.94a88.86,88.86,0,0,1-10-5.83"/><path class="cls-2" d="M234.45,37.67c2.7,0,4.62,1.17,7.32,1.95,8.86,2.71,14.26,1.94,23.12-.78,13.1-4.66,7.32,8.54-1.93,10.48-6.93,1.56-15.79,0-22-3.49a22.26,22.26,0,0,1-7.32-7.38"/><path class="cls-2" d="M215.18,76.89c0,11.26-4.62,24.85,3.09,34.17,3.85,5,18.49,10.87,16.18-.39-1.16-4.27-5.39-7.38-7.32-11.26-1.93-3.49-3.08-7.38-5-10.87-1.93-3.88-4.24-8.16-6.17-12"/><path class="cls-2" d="M173.18,73.78c-10.4,5-9.24,27.18-10.79,37.28-.38,2.33-3.08,8.15-.77,10.48,4.63,3.49,8.09-4.66,9.25-7.76,3.08-7,3.85-14.76,4.24-22.14,0-5.43.39-13.2-1.93-17.86"/><path class="cls-1" d="M188.06,156.1c0-18.85.05-37.7,1.45-56.5a157.67,157.67,0,0,1,4.34-27.73c2.5-9.72,5.92-19.82,12.06-27.9a24.66,24.66,0,0,1,9.71-8.09,17.73,17.73,0,0,1,12.57-.18,25.68,25.68,0,0,1,8.28,4.77,29.62,29.62,0,0,0,7.81,5.05c6.66,2.6,14.92,2.32,21.07-1.41A25.07,25.07,0,0,0,270,40.45a.63.63,0,0,0-.89-.89,21.23,21.23,0,0,1-10.41,5.89A26,26,0,0,1,246.74,45c-6.56-1.67-10.44-7.67-16.67-10-4.24-1.56-8.7-2.26-13.1-1a22.59,22.59,0,0,0-10.1,6.78c-6.71,7.44-10.45,17.41-13.2,26.89a136.92,136.92,0,0,0-5,26.83c-1.47,18-1.81,36.1-1.83,54.19,0,2.44,0,4.89,0,7.33a.63.63,0,0,0,1.25,0Z"/><path class="cls-1" d="M198.85,158c-.2-9.29.61-18.55,1-27.82.17-4.55.21-9.11,0-13.66-.17-2.92-.55-5.82-.77-8.74-.75-9.61-1.18-19.46-4.05-28.73-1.24-4-3-8.24-6.25-11a10.19,10.19,0,0,0-9.88-2.21c-3.32,1.18-5.46,4.23-6.87,7.32a51.13,51.13,0,0,0-3.54,13c-.79,4.84-1.26,9.73-1.7,14.61-.37,4-.61,8-1.37,12a18.59,18.59,0,0,1-.46,2,.63.63,0,0,0,1.21.34,53.8,53.8,0,0,0,1.46-9.87c.44-4.59.8-9.18,1.36-13.76a81.15,81.15,0,0,1,2.66-13.74c1-3.4,2.52-7.18,5.4-9.46a8.33,8.33,0,0,1,9.46-.34c3.47,2.09,5.43,6.1,6.74,9.78,3.21,9,3.75,18.82,4.44,28.28.46,6.3,1.14,12.53,1.08,18.86-.08,8.86-.9,17.7-1.08,26.55,0,2.21,0,4.42,0,6.63a.63.63,0,0,0,1.25,0Z"/><path class="cls-1" d="M192.69,73a84.21,84.21,0,0,0-5-27.11,49.53,49.53,0,0,0-6.5-13.11c-2.36-3.23-5.46-6.19-9.42-7.29-5.12-1.41-10.21.84-14.28,3.87-.63.47,0,1.56.64,1.08,3.53-2.63,7.9-4.82,12.42-3.95,3.85.74,6.92,3.45,9.24,6.49,5.77,7.55,8.51,17.49,10.24,26.69A73.69,73.69,0,0,1,191.44,73a.63.63,0,0,0,1.25,0Z"/><path class="cls-1" d="M193.28,71.51c3-3,6.57-6.64,10.87-7.65,5.3-1.25,7.9,4.2,9.32,8.36,3.11,9.13,2.34,19.17,6,28.14a24.22,24.22,0,0,0,10.47,12,.63.63,0,0,0,.63-1.08,23,23,0,0,1-10.17-12c-1.76-4.7-2.34-9.72-3-14.66s-1.52-10.16-3.48-14.93c-1.61-3.92-4.47-7.9-9.22-7.23s-8.95,4.82-12.25,8.12a.63.63,0,0,0,.89.89Z"/><path class="cls-1" d="M209.73,39.67c3,2.49,5.18,5.72,7.67,8.7A24.82,24.82,0,0,0,225.54,55c6.05,2.9,12.86,2.3,19.31,1.53.79-.1.8-1.35,0-1.25-6.31.76-13.11,1.44-19-1.52-6.7-3.35-9.65-10.39-15.24-15-.61-.5-1.5.38-.88.89Z"/><path class="cls-1" d="M194.62,158.81c-.8-9.73-.58-19.57-.58-29.32s.16-19.68-.56-29.47c-1-14.29,2.24-28.39,2.42-42.65.07-5.57-.47-11.07,0-16.63A58.23,58.23,0,0,1,199,26.26a34,34,0,0,1,8.17-13.21,24.51,24.51,0,0,1,14.2-6.59c.79-.09.8-1.34,0-1.25-21.1,2.49-27.52,26.13-26.92,44.2.12,3.44.29,6.85.17,10.29-.13,3.71-.45,7.41-.82,11.11-.73,7.26-1.65,14.52-1.75,21.83-.08,5.33.46,10.64.6,16s.15,10.56.16,15.84c0,11.43-.35,23,.58,34.37.06.8,1.31.81,1.25,0Z"/><path class="cls-3" d="M172.41,69.71c-3.72,0-3.72,5.82,0,5.82S176.14,69.71,172.41,69.71Z"/><path class="cls-3" d="M216.34,72.81c-3.73,0-3.73,5.83,0,5.83S220.07,72.81,216.34,72.81Z"/><path class="cls-3" d="M207.86,37.48c-3.73,0-3.73,5.83,0,5.83S211.59,37.48,207.86,37.48Z"/><path class="cls-3" d="M234.45,34h-.39a2.91,2.91,0,0,0,0,5.82h.39a2.91,2.91,0,0,0,0-5.82Z"/><path class="cls-3" d="M194.76,38.26c-3.73,0-3.73,5.82,0,5.82S198.49,38.26,194.76,38.26Z"/><path class="cls-3" d="M197.07,85.63c-3.72,0-3.72,5.82,0,5.82S200.8,85.63,197.07,85.63Z"/><path class="cls-3" d="M187.44,104.65c-3.73,0-3.73,5.82,0,5.82S191.17,104.65,187.44,104.65Z"/><path class="cls-2" d="M305.55,60.25a9.71,9.71,0,0,1-5.12-2.68c-7.93-8.11,2.4-14.53,9.7-16.84,17.4-5.78,32.41,9.55,47.94-5.1.69,15.27-10.6,26-23.18,32.56-5.76,2.68-18,9.42-24.67,7.23-6-1.84-6.51-10-3.47-15"/><path class="cls-2" d="M308.91,102.79c-11.58.5-14.64-16.89,1-13.51,13.41,2.65,20.38,15.08,35.16,10.12-4.89,10.15-24.61,19.53-35.5,20.39-5.88.43-14.49-.58-12.59-8.35,1.89-6.91,8.59-5.58,12.64-9.16"/><path class="cls-2" d="M273.44,114c2.89-5.51,1.12-11.26-5.79-11.37-14-.75-26.51,19.85-36.36,27.84,11,11.45,39.77-2.81,41.63-16.31"/><path class="cls-1" d="M256.67,162.23c2.1-4.52,5.71-8,8.71-11.91a46.47,46.47,0,0,0,6.85-13.88c1.76-5.24,3.07-10.62,4.76-15.89,1.49-4.61,2.91-9.24,4.4-13.84,3-9.24,6.3-18.44,11-26.95C297,71.46,303.2,63.21,311.28,58c8.93-5.74,20.06-8.31,30.6-8.33a.63.63,0,0,0,0-1.25,61.27,61.27,0,0,0-27.63,6.43c-8.45,4.35-15.05,11.72-20.14,19.62-5.27,8.2-9,17.3-12.12,26.48-3.36,9.76-6.38,19.65-9.24,29.56-1.73,6-3.62,12.28-7.19,17.46-3.2,4.64-7.56,8.45-10,13.62-.33.73.74,1.36,1.08.63Z"/><path class="cls-1" d="M330.45,103.93a21.22,21.22,0,0,1-11.15,1.3c-3.55-.48-7-1.52-10.5-2.22a28,28,0,0,0-10.15-.45,26.29,26.29,0,0,0-10.13,4.4c-5.91,4-10.39,9.66-14.35,15.51-2,3-4,6.14-5.93,9.22a64.28,64.28,0,0,1-5.81,8.33c-5,5.66-11.2,10.36-17.17,14.94-.63.48,0,1.57.63,1.08a157.6,157.6,0,0,0,15.28-12.87c4.74-4.71,8-10.65,11.57-16.24,3.94-6.15,8.16-12.3,13.84-17a30.06,30.06,0,0,1,9.85-5.57,23,23,0,0,1,11-.36c3.89.69,7.69,1.89,11.61,2.42a22.24,22.24,0,0,0,11.73-1.3c.74-.31.41-1.52-.33-1.21Z"/><path class="cls-1" d="M270.54,167.31a90.49,90.49,0,0,0,7.69-21.23A92.4,92.4,0,0,0,281,127c.08-5.2-1.32-10.73-6.43-13.11s-10.46-.89-15.1,1.51c-5.59,2.9-10.31,7.16-15.09,11.2-.61.52.28,1.4.89.88a105.29,105.29,0,0,1,12.12-9.44c4.33-2.7,9.72-5.14,14.91-3.68,5.62,1.59,7.46,6.81,7.45,12.16a85.19,85.19,0,0,1-2.39,17.69,90.65,90.65,0,0,1-7.91,22.46c-.37.72.71,1.35,1.08.63Z"/><path class="cls-1" d="M313.83,47.68c-1.8,3.49-3,7.46-5.49,10.54a.63.63,0,0,0,.28,1c.42.09.12-1,.06-1s-.4.07-.5.08c-.72.09-1.45.12-2.17.17-2.44.14-4.89.22-7.33.3-5.32.18-10.64.28-16,.43-.57,0-3.4-.3-3.58.58a.65.65,0,0,0,.29.71,1.24,1.24,0,0,0,.57.11c.8,0,.8-1.22,0-1.25-.3,0-.14-.06.06.06l.29.7c-.15.74-.81.34-.26.43a4.62,4.62,0,0,0,.83,0l2.7-.07,8.27-.21c5.23-.14,10.51-.15,15.73-.62a4,4,0,0,0,1.67-.28c.64-.42.31-1.15-.34-1.3l.27,1.05c2.6-3.18,3.83-7.18,5.69-10.78.37-.72-.71-1.35-1.08-.64Z"/><path class="cls-1" d="M326.19,43.21c-1.53,2.92-2.89,6-4.93,8.63a.63.63,0,0,0,.27,1c3.65,1.48,7.13,3.33,10.86,4.6.76.26,1.09-.94.33-1.2-3.72-1.27-7.21-3.13-10.86-4.6l.28,1a57.55,57.55,0,0,0,5.13-8.88c.37-.72-.71-1.35-1.08-.63Z"/><path class="cls-1" d="M335.48,44.57c-.87,1.67-1.58,3.41-2.44,5.08a.63.63,0,0,0,.22.85c1.71.89,3.5,1.62,5.21,2.52.71.37,1.34-.71.63-1.08-1.71-.9-3.5-1.63-5.21-2.52l.23.86c.86-1.67,1.57-3.41,2.44-5.08.37-.71-.71-1.34-1.08-.63Z"/><path class="cls-1" d="M314.07,98.71a57.45,57.45,0,0,1-5,4.24.64.64,0,0,0,0,1.08c1.83,1,3,2.84,4.66,4,.68.44,1.3-.64.63-1.08-1.72-1.14-2.82-3-4.65-4V104A63.09,63.09,0,0,0,315,99.6c.59-.55-.29-1.43-.89-.89Z"/><path class="cls-1" d="M323.18,99.94a21,21,0,0,1-4.26,5.7.64.64,0,0,0,.28,1c1.74.72,3.22,1.92,4.88,2.8.71.38,1.34-.7.63-1.08-1.76-.93-3.33-2.16-5.18-2.92l.28,1a22.12,22.12,0,0,0,4.45-6,.64.64,0,0,0-.22-.85.63.63,0,0,0-.86.22Z"/><path class="cls-1" d="M245.82,122.56a6.29,6.29,0,0,0,3.16-.24c.48-.14,1-.3,1.46-.42a1.35,1.35,0,0,1,.94.08l-.29-.7c-.79,2-1,4.12-1.69,6.12a.63.63,0,0,0,1.21.34c.7-2,.9-4.15,1.69-6.13a.63.63,0,0,0-.29-.71,2.91,2.91,0,0,0-1.33-.3,6.34,6.34,0,0,0-1.49.35,6,6,0,0,1-3,.4c-.78-.17-1.12,1-.33,1.21Z"/><path class="cls-1" d="M252.3,114.78c2.8.76,5.74.62,8.6,1l-.43-.76c-.7,2.6-2,5-2.51,7.67-.15.79,1.06,1.12,1.21.33.52-2.65,1.8-5.07,2.5-7.67a.63.63,0,0,0-.43-.77c-2.86-.39-5.81-.25-8.61-1a.63.63,0,0,0-.33,1.21Z"/><path class="cls-1" d="M262.91,108.3c3.42,1.79,7,3.44,10,5.88v-.89a58.23,58.23,0,0,0-6.74,7.39c-.46.66.62,1.29,1.08.63a56.6,56.6,0,0,1,6.54-7.13.63.63,0,0,0,0-.89c-3.12-2.51-6.73-4.22-10.26-6.07-.71-.37-1.34.71-.63,1.08Z"/><path class="cls-1" d="M284,98l-.11-.19a.75.75,0,0,0,.31-1c-.11-.2-.35-1.68-.48-2.25q-.56-2.59-1.26-5.14c-.5-1.76-1.45-6.44-3.74-6.88-2.81-.55-2.58,3.43-2.09,5,1.27,4.13,4.29,7.41,6.14,11.24C283.16,99.61,284.39,98.83,284,98Z"/><path class="cls-1" d="M301.58,80c-1.42-1.69-5.05.55-6.39,1.29a51.66,51.66,0,0,0-6.84,4.63.76.76,0,0,0-.2,1A.77.77,0,0,0,289,87.9c3.36-.83,6.92-1.06,10.09-2.59C301,84.39,303.4,82.14,301.58,80Z"/><path class="cls-1" d="M295.14,74.16c-.05-.17-.11-.34-.17-.51l.15,0c1.62-.86,1.36-4.08,1.31-5.55-.07-1.93-.28-5.33-2.09-6.53-2-1.32-3.34,1.51-3.46,3.08-.27,3.46,2,6.77,2.87,10C294,75.5,295.39,75.06,295.14,74.16Z"/><path class="cls-1" d="M292,96.19c-1.7-.73-3.36,1.22-4.14,2.49-1.75,2.85-1.63,6.65-2.34,9.83a.73.73,0,0,0,1.42.3.25.25,0,0,1,0-.08.72.72,0,0,0,.45-.33C288,107.5,294.73,97.36,292,96.19Z"/><path class="cls-1" d="M291.91,113.92c-.64-3-7.91-1.12-9.79-.56l-.1.06c-.83,0-.86,1.24-.11,1.43C283.5,115.25,292.85,118.38,291.91,113.92Z"/></g></g></svg>