<svg xmlns="http://www.w3.org/2000/svg" viewBox="0 0 55.71 37.26"><defs><style>.cls-1{fill:#164193;}.cls-2{fill:#ffec00;}</style></defs><g id="Layer_2" data-name="Layer 2"><g id="microsite-_layout_partner" data-name="microsite- layout partner"><rect class="cls-1" width="55.71" height="37.26"/><polygon class="cls-2" points="28.46 5.3 30.39 5.3 28.83 6.52 29.44 8.45 27.88 7.26 26.33 8.45 26.94 6.52 25.37 5.3 27.3 5.3 27.88 3.42 28.46 5.3"/><polygon class="cls-2" points="28.52 30.15 30.47 30.15 28.9 31.32 29.51 33.18 27.95 32.03 26.4 33.18 27.01 31.32 25.43 30.15 27.37 30.15 27.95 28.34 28.52 30.15"/><polygon class="cls-2" points="34.67 28.5 36.61 28.5 35.05 29.67 35.66 31.53 34.1 30.39 32.55 31.53 33.16 29.67 31.58 28.5 33.52 28.5 34.1 26.69 34.67 28.5"/><polygon class="cls-2" points="34.67 6.96 36.61 6.96 35.05 8.13 35.66 9.98 34.1 8.84 32.55 9.98 33.16 8.13 31.58 6.96 33.52 6.96 34.1 5.14 34.67 6.96"/><polygon class="cls-2" points="39.24 11.52 41.17 11.52 39.61 12.69 40.22 14.55 38.66 13.4 37.11 14.55 37.72 12.69 36.15 11.52 38.08 11.52 38.66 9.71 39.24 11.52"/><polygon class="cls-2" points="39.24 24 41.17 24 39.61 25.18 40.22 27.04 38.66 25.89 37.11 27.04 37.72 25.18 36.15 24 38.08 24 38.66 22.19 39.24 24"/><polygon class="cls-2" points="40.95 17.67 42.89 17.67 41.33 18.84 41.93 20.7 40.38 19.55 38.82 20.7 39.43 18.84 37.85 17.67 39.79 17.67 40.38 15.86 40.95 17.67"/><polygon class="cls-2" points="22.19 6.97 24.13 6.97 22.57 8.14 23.17 10 21.62 8.86 20.06 10 20.67 8.14 19.1 6.97 21.03 6.97 21.62 5.16 22.19 6.97"/><polygon class="cls-2" points="17.75 11.54 19.69 11.54 18.13 12.71 18.73 14.56 17.18 13.42 15.63 14.56 16.24 12.71 14.66 11.54 16.6 11.54 17.18 9.72 17.75 11.54"/><polygon class="cls-2" points="16.11 17.68 18.05 17.68 16.48 18.85 17.09 20.71 15.53 19.57 13.98 20.71 14.59 18.85 13.02 17.68 14.95 17.68 15.53 15.87 16.11 17.68"/><polygon class="cls-2" points="17.75 24.02 19.69 24.02 18.13 25.19 18.73 27.05 17.18 25.9 15.63 27.05 16.24 25.19 14.66 24.02 16.6 24.02 17.18 22.21 17.75 24.02"/><polygon class="cls-2" points="22.25 28.52 24.19 28.52 22.63 29.69 23.23 31.55 21.68 30.4 20.13 31.55 20.74 29.69 19.16 28.52 21.09 28.52 21.68 26.71 22.25 28.52"/></g></g></svg>