<svg xmlns="http://www.w3.org/2000/svg" viewBox="0 0 108 39.16"><defs><style>.cls-1{fill:#b2b2b2;}.cls-2{fill:#95c230;}.cls-3{fill:#fc0;}.cls-4,.cls-6{fill:#f39200;}.cls-5{fill:#5fc4e1;}.cls-6{stroke:#f39200;stroke-miterlimit:10;stroke-width:0.26px;}</style></defs><g id="Layer_2" data-name="Layer 2"><g id="microsite-_layout_partner" data-name="microsite- layout partner"><path class="cls-1" d="M3.83,36.38c-.06.15-.11.19-.25.19H2.91c-.15,0-.19,0-.24-.17L.11,29.67c0-.12,0-.24.11-.24H1c.15,0,.18.07.24.21l1.46,4.1.52,1.53h0c0-.16.52-1.57.52-1.57l1.44-4.08c.06-.15.09-.19.22-.19h.81c.13,0,.16.09.1.22Z"/><path class="cls-1" d="M9.33,28.18c-.55,0-.63-.3-.63-.66s.12-.63.63-.63.63.25.63.63S9.88,28.18,9.33,28.18Zm.31,8.39H9c-.18,0-.26,0-.26-.25V29.68c0-.21.08-.25.26-.25h.6c.16,0,.24.06.24.25v6.64C9.88,36.52,9.8,36.57,9.64,36.57Z"/><path class="cls-1" d="M15.08,36.69a6.17,6.17,0,0,1-2.24-.34.25.25,0,0,1-.16-.3l.06-.31c0-.19.14-.21.32-.19.6.07,1.57.16,2.07.16,1.08,0,1.54-.32,1.54-1.07s-.28-1.06-1.44-1.23c-1.34-.21-2.55-.52-2.55-2,0-1.36,1-2.1,2.56-2.1a6.84,6.84,0,0,1,2.2.33.24.24,0,0,1,.15.3l-.06.36c0,.16-.16.17-.38.16-.6-.06-1.3-.15-1.92-.15-1.1,0-1.41.31-1.41,1.07s.34.82,1.51,1,2.5.49,2.5,2.16S16.49,36.69,15.08,36.69Z"/><path class="cls-1" d="M21.14,28.18c-.56,0-.63-.3-.63-.66s.12-.63.63-.63.63.25.63.63S21.68,28.18,21.14,28.18Zm.31,8.39h-.6c-.18,0-.27,0-.27-.25V29.68c0-.21.09-.25.27-.25h.6c.16,0,.23.06.23.25v6.64C21.68,36.52,21.61,36.57,21.45,36.57Z"/><path class="cls-1" d="M28.62,36.12a.26.26,0,0,1-.13.28,4.75,4.75,0,0,1-1.66.29c-1.26,0-1.58-.61-1.58-1.55V30.35h-.81c-.19,0-.25-.07-.25-.24v-.42c0-.17.06-.26.25-.26h.82V27.85c0-.18.1-.24.25-.28l.59-.16c.16-.05.25,0,.25.22v1.8H28c.21,0,.25.09.25.25v.43c0,.17,0,.24-.25.24H26.35V34.8c0,.69.16.86,1,.86l.85,0c.23,0,.29,0,.32.17Z"/><path class="cls-1" d="M35.62,33.36H31.48c0,1.78.54,2.32,1.92,2.32.6,0,1.53-.12,2-.18.19,0,.29,0,.34.19l.06.33a.24.24,0,0,1-.16.29,7.51,7.51,0,0,1-2.35.4c-2.69,0-3-1.82-3-3.7,0-1.42.29-3.73,3-3.73,2.51,0,2.89,1.63,3,3.25C36.28,33,36.16,33.36,35.62,33.36Zm-2.35-3.08c-1.29,0-1.7.84-1.79,2.16h3.59C35.06,31.41,34.84,30.28,33.27,30.28Z"/><path class="cls-1" d="M44.34,36.57h-.6c-.17,0-.26,0-.26-.25v-.51l0,0a5.23,5.23,0,0,1-2.58.94c-1.91,0-2.16-1.14-2.16-2.71V29.68c0-.19.09-.25.25-.25h.63c.16,0,.24.06.24.25V34c0,1.35.29,1.69,1.2,1.69a7.59,7.59,0,0,0,2.46-.85V29.68c0-.19.08-.25.25-.25h.6c.18,0,.25.06.25.25v6.64C44.59,36.52,44.52,36.57,44.34,36.57Z"/><path class="cls-1" d="M51.11,30.44a13.48,13.48,0,0,0-2.35.71v5.17c0,.2-.09.25-.25.25h-.63c-.16,0-.24,0-.24-.25V29.68c0-.19.08-.25.24-.25h.61c.18,0,.27.06.27.25v.6l0,0a6.33,6.33,0,0,1,2.2-.95c.17-.05.22,0,.25.17l.06.62C51.33,30.33,51.25,30.43,51.11,30.44Z"/><path class="cls-1" d="M56,36.69c-2.8,0-3-2.08-3-3.81,0-1.43.28-3.6,3-3.6s3.07,1.84,3.07,3.6S58.88,36.69,56,36.69Zm0-6.39c-1.51,0-1.83.89-1.83,2.68s.32,2.68,1.83,2.68,1.92-.85,1.92-2.68S57.6,30.3,56,30.3Z"/><path class="cls-1" d="M64.76,36.71a5.69,5.69,0,0,1-2-.41h0v2.57c0,.19-.06.28-.26.28h-.6c-.21,0-.25-.08-.25-.28v-9.2c0-.18.08-.25.25-.25h.6c.17,0,.25.06.25.25v.53l0,0a5.23,5.23,0,0,1,2.49-.94c1.85,0,2.4,1.3,2.4,3.64S67,36.71,64.76,36.71Zm.38-6.4a6.68,6.68,0,0,0-2.42.84v4.22a7.22,7.22,0,0,0,2.11.32c1.25,0,1.65-.69,1.65-2.8S66.05,30.31,65.14,30.31Z"/><path class="cls-1" d="M75.15,33.36H71c0,1.78.54,2.32,1.92,2.32.6,0,1.53-.12,2-.18.19,0,.29,0,.34.19l.06.33a.25.25,0,0,1-.17.29,7.39,7.39,0,0,1-2.34.4c-2.69,0-3-1.82-3-3.7,0-1.42.29-3.73,3-3.73,2.51,0,2.89,1.63,3,3.25C75.81,33,75.69,33.36,75.15,33.36ZM72.8,30.28c-1.29,0-1.7.84-1.79,2.16H74.6C74.59,31.41,74.37,30.28,72.8,30.28Z"/><path class="cls-1" d="M78.75,36.71c-.58,0-.66-.33-.66-.71s.12-.67.66-.67.68.28.68.67S79.33,36.71,78.75,36.71Z"/><path class="cls-1" d="M87,36.35a6.08,6.08,0,0,1-2.21.34c-2.59,0-3-1.69-3-3.74,0-1.86.36-3.67,3-3.67a6.7,6.7,0,0,1,2.22.34.25.25,0,0,1,.15.31l-.06.34c0,.16-.2.17-.38.16-.6-.06-1.42-.15-2-.15-1.33,0-1.74.68-1.74,2.66,0,2.14.44,2.75,1.74,2.75.47,0,1.42-.07,2-.14.18,0,.29,0,.32.19l.06.31A.24.24,0,0,1,87,36.35Z"/><path class="cls-1" d="M92.16,36.69c-2.8,0-3-2.08-3-3.81,0-1.43.27-3.6,3-3.6s3.06,1.84,3.06,3.6S95.05,36.69,92.16,36.69Zm0-6.39c-1.51,0-1.83.89-1.83,2.68s.32,2.68,1.83,2.68,1.92-.85,1.92-2.68S93.77,30.3,92.16,30.3Z"/><path class="cls-1" d="M107.75,36.57h-.62c-.17,0-.24,0-.24-.25V31.91c0-1.22-.25-1.61-1.15-1.61a6.46,6.46,0,0,0-2.32.85,6.45,6.45,0,0,1,0,.79v4.38c0,.2-.07.25-.25.25h-.64c-.16,0-.22,0-.22-.25V31.81c0-1-.22-1.51-1.11-1.51a6.36,6.36,0,0,0-2.33.83v5.19c0,.2-.09.25-.25.25H98c-.16,0-.23,0-.23-.25V29.68c0-.19.07-.25.23-.25h.6c.18,0,.27.06.27.25v.5s0,0,0,0a4.91,4.91,0,0,1,2.42-.91c1.07,0,1.64.37,1.89,1.06a4.84,4.84,0,0,1,2.66-1.06c1.83,0,2.11,1.07,2.11,2.63v4.41C108,36.52,107.93,36.57,107.75,36.57Z"/><path class="cls-2" d="M0,.83C0,.42.16.1.7.1H13.31A.64.64,0,0,1,14,.8V3.69c0,.38-.16.67-.7.67H5.05V8.2h7.18a.65.65,0,0,1,.73.67v2.89c0,.38-.16.66-.73.66H5.05V17h8.38a.65.65,0,0,1,.7.7v2.89c0,.38-.16.63-.7.63H.7c-.54,0-.7-.28-.7-.67Z"/><path class="cls-3" d="M30.05,13.5V.77a.56.56,0,0,1,.63-.64h2.38c.45,0,.57.26.57.64l0,12.73A10.1,10.1,0,0,1,33,17.25c-1.24,3-4.1,4.23-7.27,4.23-3.37,0-5.65-1.21-6.86-3.53A9.49,9.49,0,0,1,18,13.5V.77c0-.41.15-.64.6-.64h2.38c.45,0,.6.26.6.64V13.5c0,3.12,1.43,4.8,4.23,4.8S30.05,16.78,30.05,13.5Z"/><path class="cls-3" d="M53.82,20.43c.23.47,0,.79-.41.79H49.5c-.63,0-1-.16-1.23-.7L45,13.19H43v7.33c0,.32-.09.7-.66.7H38.64c-.57,0-.73-.28-.73-.7V.8c0-.38.16-.7.73-.7h7.78c3.43,0,7,1.94,7,6.45a6.07,6.07,0,0,1-3.46,5.75ZM45.57,4.36H43V9.09H45.5c1.15,0,2.67-.35,2.67-2.48C48.17,5,47,4.36,45.57,4.36Z"/><path class="cls-4" d="M81.1,20.52c0,.32-.1.7-.67.7H76.75a.62.62,0,0,1-.7-.7V.8a.62.62,0,0,1,.7-.7h7.36c4,0,7.18,2.16,7.18,6.58,0,2.92-1.33,6.79-7.18,6.79h-3ZM83.38,4.33H81.1V9.38h2.35A2.37,2.37,0,0,0,86.11,6.8C86.11,5.12,85,4.33,83.38,4.33Z"/><path class="cls-5" d="M93.83.83c0-.41.16-.73.7-.73h12.61a.65.65,0,0,1,.67.7V3.69c0,.38-.16.67-.7.67H98.88V8.2h7.18a.65.65,0,0,1,.73.67v2.89c0,.38-.16.66-.73.66H98.88V17h8.39a.65.65,0,0,1,.7.7v2.89c0,.38-.16.63-.7.63H94.53c-.54,0-.7-.28-.7-.67Z"/><path class="cls-6" d="M64.47,21.38c-6.94,0-7.6-5.69-7.6-10.94,0-4.12.88-10.31,7.6-10.31s7.79,5,7.79,10.31S71.44,21.38,64.47,21.38Zm0-20.22c-5.08,0-6.43,4.13-6.43,9.6,0,5.28,1.16,9.59,6.43,9.59,5.11,0,6.68-4,6.68-9.59S69.8,1.16,64.47,1.16Z"/></g></g></svg>