<svg xmlns="http://www.w3.org/2000/svg" viewBox="0 0 108.55 50.42"><defs><style>.cls-1{isolation:isolate;}.cls-2{fill:#fff;}.cls-3{fill:#4560a8;}.cls-10,.cls-3,.cls-4,.cls-5,.cls-6,.cls-7,.cls-8{mix-blend-mode:multiply;}.cls-4{fill:#a9c811;}.cls-5{fill:#d90e28;}.cls-6{fill:#40bfef;}.cls-7{fill:#fdc600;}.cls-9{fill:#eb69a2;}.cls-10{fill:#b5931d;}</style></defs><g class="cls-1"><g id="Layer_2" data-name="Layer 2"><g id="microsite-_layout_partner" data-name="microsite- layout partner"><path d="M2.59,48V45.39h.62v4H3L.63,46.66v2.63H0v-4H.21Z"/><path d="M5.24,46.33a1.43,1.43,0,0,1,.48.07,1,1,0,0,1,.38.23,1.14,1.14,0,0,1,.25.38,1.69,1.69,0,0,1,.08.53v1.75H5.85V49a1,1,0,0,1-.39.28,1.25,1.25,0,0,1-.53.11,1.33,1.33,0,0,1-.42-.06,1.09,1.09,0,0,1-.32-.17.86.86,0,0,1-.2-.27.77.77,0,0,1-.07-.34.71.71,0,0,1,.29-.61A1.23,1.23,0,0,1,5,47.69h.82V47.5A.66.66,0,0,0,5.65,47a.61.61,0,0,0-.46-.16.94.94,0,0,0-.45.11,1.73,1.73,0,0,0-.36.32L4,47a1.34,1.34,0,0,1,.54-.47A1.57,1.57,0,0,1,5.24,46.33Zm-.18,2.55a.93.93,0,0,0,.29-.05,1,1,0,0,0,.24-.14,1.12,1.12,0,0,0,.16-.22.67.67,0,0,0,.06-.28v0H5.06a.69.69,0,0,0-.38.09.29.29,0,0,0-.13.26.32.32,0,0,0,.15.29A.61.61,0,0,0,5.06,48.88Z"/><path d="M8.93,46.93H8.06v1.36a.45.45,0,0,0,.15.4.74.74,0,0,0,.43.1h.17l.21,0v.52l-.24.05-.27,0a1.14,1.14,0,0,1-.78-.25.94.94,0,0,1-.29-.76V46.93H7v-.54h.47v-.76h.62v.76h.87Z"/><path d="M10,44.9a.44.44,0,0,1,.3.12.39.39,0,0,1,.13.29.41.41,0,0,1-.13.29.44.44,0,0,1-.3.12.41.41,0,0,1-.3-.12.4.4,0,0,1-.12-.29A.38.38,0,0,1,9.66,45,.41.41,0,0,1,10,44.9Zm.31,4.39H9.65v-2.9h.62Z"/><path d="M12.52,46.33a1.52,1.52,0,0,1,.6.11,1.58,1.58,0,0,1,.48.33,1.43,1.43,0,0,1,.33.47,1.53,1.53,0,0,1,.12.6,1.45,1.45,0,0,1-.12.59,1.51,1.51,0,0,1-.33.49,1.66,1.66,0,0,1-.49.32,1.54,1.54,0,0,1-1.19,0,1.66,1.66,0,0,1-.49-.32,1.51,1.51,0,0,1-.33-.49,1.45,1.45,0,0,1-.12-.59,1.53,1.53,0,0,1,.12-.6,1.43,1.43,0,0,1,.33-.47,1.47,1.47,0,0,1,1.09-.44Zm0,.56a.86.86,0,0,0-.36.08.83.83,0,0,0-.47.5.9.9,0,0,0-.07.37,1,1,0,0,0,.07.38.79.79,0,0,0,.18.29.84.84,0,0,0,.29.2.78.78,0,0,0,.35.07.86.86,0,0,0,.36-.07.84.84,0,0,0,.29-.2,1,1,0,0,0,.19-.29,1.17,1.17,0,0,0,.07-.38,1.11,1.11,0,0,0-.07-.37.91.91,0,0,0-.19-.3.84.84,0,0,0-.29-.2A.85.85,0,0,0,12.52,46.89Z"/><path d="M16.21,46.33a1.14,1.14,0,0,1,.46.08,1.16,1.16,0,0,1,.34.24,1.07,1.07,0,0,1,.21.36,1.4,1.4,0,0,1,.08.47v1.81h-.63V47.56a.68.68,0,0,0-.17-.49.58.58,0,0,0-.45-.18.65.65,0,0,0-.48.18.7.7,0,0,0-.19.49v1.73h-.62v-2.9h.58v.3a.91.91,0,0,1,.37-.27A1.35,1.35,0,0,1,16.21,46.33Z"/><path d="M19.27,46.33a1.53,1.53,0,0,1,.49.07,1,1,0,0,1,.62.61,1.44,1.44,0,0,1,.08.53v1.75h-.57V49a1.21,1.21,0,0,1-.39.28,1.33,1.33,0,0,1-.54.11,1.37,1.37,0,0,1-.42-.06,1.09,1.09,0,0,1-.32-.17.86.86,0,0,1-.2-.27.77.77,0,0,1-.07-.34.71.71,0,0,1,.29-.61,1.23,1.23,0,0,1,.78-.22h.82V47.5a.56.56,0,0,0-.62-.62.87.87,0,0,0-.44.11,1.54,1.54,0,0,0-.37.32L18.05,47a1.34,1.34,0,0,1,.54-.47A1.57,1.57,0,0,1,19.27,46.33Zm-.18,2.55a.93.93,0,0,0,.29-.05,1,1,0,0,0,.24-.14.82.82,0,0,0,.16-.22.67.67,0,0,0,.06-.28v0h-.75a.69.69,0,0,0-.38.09.29.29,0,0,0-.13.26.32.32,0,0,0,.15.29A.61.61,0,0,0,19.09,48.88Z"/><path d="M22,49.29h-.62V44.86H22Z"/><path d="M27.1,46H25.79v3.34h-.63V46H23.85v-.56H27.1Z"/><path d="M28.55,46.33a1.44,1.44,0,0,1,.59.11,1.51,1.51,0,0,1,.49.33,1.43,1.43,0,0,1,.33.47,1.53,1.53,0,0,1,.12.6,1.45,1.45,0,0,1-.12.59,1.51,1.51,0,0,1-.33.49,1.66,1.66,0,0,1-.49.32,1.56,1.56,0,0,1-1.2,0,1.75,1.75,0,0,1-.48-.32,1.51,1.51,0,0,1-.33-.49,1.45,1.45,0,0,1-.12-.59,1.53,1.53,0,0,1,.12-.6,1.43,1.43,0,0,1,.33-.47,1.51,1.51,0,0,1,.49-.33A1.46,1.46,0,0,1,28.55,46.33Zm0,.56a1,1,0,0,0-.37.08.8.8,0,0,0-.28.2.91.91,0,0,0-.19.3,1.1,1.1,0,0,0-.06.37,1.16,1.16,0,0,0,.06.38,1,1,0,0,0,.19.29.8.8,0,0,0,.28.2,1,1,0,0,0,.72,0,.84.84,0,0,0,.29-.2,1,1,0,0,0,.19-.29,1.16,1.16,0,0,0,.06-.38,1.1,1.1,0,0,0-.06-.37.91.91,0,0,0-.19-.3.84.84,0,0,0-.29-.2A.85.85,0,0,0,28.55,46.89Z"/><path d="M33.3,48.07a1.53,1.53,0,0,1-.1.54,1.23,1.23,0,0,1-.27.4,1.11,1.11,0,0,1-.4.26,1.43,1.43,0,0,1-1,0,1.2,1.2,0,0,1-.4-.26,1.09,1.09,0,0,1-.27-.4,1.33,1.33,0,0,1-.1-.54V46.39h.62v1.73a.66.66,0,0,0,.19.49.69.69,0,0,0,.46.17.64.64,0,0,0,.45-.17.63.63,0,0,0,.19-.49V46.39h.63Z"/><path d="M35.58,46.36h.14l.1,0v.55h-.19a1.26,1.26,0,0,0-.33.05.72.72,0,0,0-.27.15.64.64,0,0,0-.18.25.78.78,0,0,0-.07.35v1.55h-.62v-2.9h.57v.39a1,1,0,0,1,.38-.31A1,1,0,0,1,35.58,46.36Z"/><path d="M36.69,44.9A.44.44,0,0,1,37,45a.38.38,0,0,1,.12.29.4.4,0,0,1-.12.29.44.44,0,0,1-.3.12.41.41,0,0,1-.3-.12.37.37,0,0,1-.13-.29.36.36,0,0,1,.13-.29A.41.41,0,0,1,36.69,44.9Zm.3,4.39h-.62v-2.9H37Z"/><path d="M38.82,46.33a1.32,1.32,0,0,1,.57.11,1.27,1.27,0,0,1,.43.33l-.33.39a1,1,0,0,0-.32-.22,1,1,0,0,0-.37-.08.58.58,0,0,0-.28.07.23.23,0,0,0-.11.21.23.23,0,0,0,.09.19,1,1,0,0,0,.3.15l.27.12a2.06,2.06,0,0,1,.6.36.69.69,0,0,1,.2.51.76.76,0,0,1-.09.38.79.79,0,0,1-.23.28,1,1,0,0,1-.35.17,1.35,1.35,0,0,1-.41.06,1.45,1.45,0,0,1-.68-.16,1.4,1.4,0,0,1-.49-.41L38,48.4a1.44,1.44,0,0,0,.37.3.89.89,0,0,0,.45.12.7.7,0,0,0,.33-.08.27.27,0,0,0,.13-.25.25.25,0,0,0-.11-.21,1.92,1.92,0,0,0-.29-.15l-.3-.12-.31-.15a1.08,1.08,0,0,1-.24-.18.91.91,0,0,1-.15-.23.84.84,0,0,1-.05-.29.67.67,0,0,1,.08-.35.71.71,0,0,1,.21-.27,1,1,0,0,1,.33-.16A1.29,1.29,0,0,1,38.82,46.33Z"/><path d="M43.86,46.33a1.06,1.06,0,0,1,.45.08,1,1,0,0,1,.34.24,1.07,1.07,0,0,1,.21.36,1.41,1.41,0,0,1,.07.47v1.81h-.62V47.57a.69.69,0,0,0-.16-.49.53.53,0,0,0-.44-.19.58.58,0,0,0-.46.19.62.62,0,0,0-.18.46v1.75h-.62V47.57a.74.74,0,0,0-.16-.49.55.55,0,0,0-.45-.19.59.59,0,0,0-.46.19.66.66,0,0,0-.18.49v1.72h-.62v-2.9h.57v.28a1,1,0,0,1,.37-.25,1.21,1.21,0,0,1,.48-.09,1.09,1.09,0,0,1,.53.12.88.88,0,0,1,.35.34,1.21,1.21,0,0,1,.4-.34A1.34,1.34,0,0,1,43.86,46.33Z"/><path d="M49.3,45.33a2.15,2.15,0,0,1,.8.15,1.89,1.89,0,0,1,.65.43,2.08,2.08,0,0,1,.44.64,2.06,2.06,0,0,1,0,1.59,2.08,2.08,0,0,1-.44.64,2,2,0,0,1-.65.42,2.08,2.08,0,0,1-1.6,0,1.92,1.92,0,0,1-.65-.42,2,2,0,0,1-.43-.64,1.94,1.94,0,0,1-.16-.8,2,2,0,0,1,.59-1.43,2,2,0,0,1,.65-.43A2.15,2.15,0,0,1,49.3,45.33Zm0,.57a1.47,1.47,0,0,0-.56.11,1.23,1.23,0,0,0-.44.3,1.27,1.27,0,0,0-.3.45,1.57,1.57,0,0,0-.1.58,1.52,1.52,0,0,0,.1.57,1.31,1.31,0,0,0,.3.46,1.23,1.23,0,0,0,.44.3,1.3,1.3,0,0,0,.56.11,1.26,1.26,0,0,0,.55-.11,1.37,1.37,0,0,0,.45-.3,1.44,1.44,0,0,0,.29-.46,1.52,1.52,0,0,0,.11-.57,1.48,1.48,0,0,0-.11-.57,1.44,1.44,0,0,0-.29-.46,1.37,1.37,0,0,0-.45-.3A1.42,1.42,0,0,0,49.31,45.9Z"/><path d="M53.48,46.36h.14l.1,0v.55h-.19a1.26,1.26,0,0,0-.33.05.72.72,0,0,0-.27.15.64.64,0,0,0-.18.25.78.78,0,0,0-.07.35v1.55h-.62v-2.9h.57v.39a1,1,0,0,1,.38-.31A1.08,1.08,0,0,1,53.48,46.36Z"/><path d="M55.46,46.33a1.38,1.38,0,0,1,.59.12,1.27,1.27,0,0,1,.44.35v-.41h.57V49a1.72,1.72,0,0,1-.1.62,1.19,1.19,0,0,1-.3.45,1.24,1.24,0,0,1-.46.27,1.83,1.83,0,0,1-.59.09,1.86,1.86,0,0,1-.81-.17,2,2,0,0,1-.58-.38l.33-.43a3.21,3.21,0,0,0,.46.29,1.28,1.28,0,0,0,.56.12,1,1,0,0,0,.63-.2.78.78,0,0,0,.24-.62v-.21a1.21,1.21,0,0,1-.42.31,1.5,1.5,0,0,1-.56.1,1.47,1.47,0,0,1-.56-.1,1.54,1.54,0,0,1-.45-.3,1.44,1.44,0,0,1-.29-.46,1.64,1.64,0,0,1,0-1.18,1.44,1.44,0,0,1,.29-.46,1.37,1.37,0,0,1,.45-.3A1.47,1.47,0,0,1,55.46,46.33Zm.11.55a.77.77,0,0,0-.34.07.75.75,0,0,0-.28.18.7.7,0,0,0-.19.28.9.9,0,0,0-.07.37.87.87,0,0,0,.07.37.73.73,0,0,0,.19.29.75.75,0,0,0,.28.18.77.77,0,0,0,.34.07,1.2,1.2,0,0,0,.33,0,1.17,1.17,0,0,0,.28-.17.79.79,0,0,0,.2-.29,1.21,1.21,0,0,0,.07-.41,1,1,0,0,0-.08-.4.84.84,0,0,0-.2-.28.71.71,0,0,0-.28-.16A1.13,1.13,0,0,0,55.57,46.88Z"/><path d="M59.07,46.33a1.53,1.53,0,0,1,.49.07,1,1,0,0,1,.62.61,1.44,1.44,0,0,1,.09.53v1.75h-.58V49a1.21,1.21,0,0,1-.39.28,1.33,1.33,0,0,1-.54.11,1.42,1.42,0,0,1-.42-.06,1.09,1.09,0,0,1-.32-.17,1.05,1.05,0,0,1-.2-.27.77.77,0,0,1-.07-.34.74.74,0,0,1,.29-.61,1.23,1.23,0,0,1,.78-.22h.82V47.5a.56.56,0,0,0-.62-.62.87.87,0,0,0-.44.11,1.54,1.54,0,0,0-.37.32L57.86,47a1.31,1.31,0,0,1,.53-.47A1.57,1.57,0,0,1,59.07,46.33Zm-.18,2.55a.93.93,0,0,0,.29-.05,1,1,0,0,0,.24-.14.82.82,0,0,0,.16-.22.67.67,0,0,0,.06-.28v0H58.9a.7.7,0,0,0-.39.09.34.34,0,0,0,0,.55A.61.61,0,0,0,58.89,48.88Z"/><path d="M62.58,46.33a1.06,1.06,0,0,1,.45.08,1,1,0,0,1,.34.24,1,1,0,0,1,.22.36,1.41,1.41,0,0,1,.07.47v1.81H63V47.56a.73.73,0,0,0-.17-.49.6.6,0,0,0-.46-.18.68.68,0,0,0-.48.18.69.69,0,0,0-.18.49v1.73h-.62v-2.9h.57v.3a.94.94,0,0,1,.38-.27A1.28,1.28,0,0,1,62.58,46.33Z"/><path d="M64.84,44.9a.44.44,0,0,1,.3.12.38.38,0,0,1,.12.29.4.4,0,0,1-.12.29.44.44,0,0,1-.3.12.41.41,0,0,1-.3-.12.37.37,0,0,1-.13-.29.36.36,0,0,1,.13-.29A.41.41,0,0,1,64.84,44.9Zm.31,4.39h-.62v-2.9h.62Z"/><path d="M67,46.33a1.32,1.32,0,0,1,.57.11,1.41,1.41,0,0,1,.44.33l-.34.39a1,1,0,0,0-.32-.22,1,1,0,0,0-.37-.08.58.58,0,0,0-.28.07.25.25,0,0,0-.11.21.23.23,0,0,0,.09.19,1.18,1.18,0,0,0,.3.15l.27.12a2.06,2.06,0,0,1,.6.36.69.69,0,0,1,.2.51.76.76,0,0,1-.09.38.79.79,0,0,1-.23.28,1,1,0,0,1-.34.17,1.42,1.42,0,0,1-.42.06,1.45,1.45,0,0,1-.68-.16,1.4,1.4,0,0,1-.49-.41l.35-.39a1.32,1.32,0,0,0,.38.3.83.83,0,0,0,.44.12.67.67,0,0,0,.33-.08.27.27,0,0,0,.13-.25.23.23,0,0,0-.11-.21,1.54,1.54,0,0,0-.29-.15L66.71,48l-.32-.15a1.08,1.08,0,0,1-.24-.18.91.91,0,0,1-.15-.23.84.84,0,0,1,0-.29.78.78,0,0,1,.08-.35.71.71,0,0,1,.21-.27,1.13,1.13,0,0,1,.33-.16A1.33,1.33,0,0,1,67,46.33Z"/><path d="M69.84,46.33a1.53,1.53,0,0,1,.49.07A1,1,0,0,1,71,47a1.44,1.44,0,0,1,.09.53v1.75h-.58V49a1.21,1.21,0,0,1-.39.28,1.33,1.33,0,0,1-.54.11,1.42,1.42,0,0,1-.42-.06,1.09,1.09,0,0,1-.32-.17,1.05,1.05,0,0,1-.2-.27.77.77,0,0,1-.07-.34.74.74,0,0,1,.29-.61,1.23,1.23,0,0,1,.78-.22h.82V47.5a.56.56,0,0,0-.62-.62.87.87,0,0,0-.44.11,1.54,1.54,0,0,0-.37.32L68.63,47a1.25,1.25,0,0,1,.53-.47A1.57,1.57,0,0,1,69.84,46.33Zm-.18,2.55a.93.93,0,0,0,.29-.05,1,1,0,0,0,.24-.14.82.82,0,0,0,.16-.22.67.67,0,0,0,.06-.28v0h-.74a.7.7,0,0,0-.39.09.34.34,0,0,0,0,.55A.61.61,0,0,0,69.66,48.88Z"/><path d="M73.53,46.93h-.87v1.36a.45.45,0,0,0,.15.4.74.74,0,0,0,.43.1h.17l.21,0v.52l-.24.05-.27,0a1.16,1.16,0,0,1-.78-.25.94.94,0,0,1-.29-.76V46.93h-.47v-.54H72v-.76h.62v.76h.87Z"/><path d="M74.56,44.9a.41.41,0,0,1,.3.12.36.36,0,0,1,.13.29.37.37,0,0,1-.13.29.43.43,0,0,1-.6,0,.4.4,0,0,1-.12-.29.38.38,0,0,1,.12-.29A.41.41,0,0,1,74.56,44.9Zm.31,4.39h-.62v-2.9h.62Z"/><path d="M77.12,46.33a1.52,1.52,0,0,1,.6.11,1.63,1.63,0,0,1,.49.33,1.43,1.43,0,0,1,.33.47,1.53,1.53,0,0,1,.12.6,1.45,1.45,0,0,1-.12.59,1.51,1.51,0,0,1-.33.49,1.71,1.71,0,0,1-.5.32,1.54,1.54,0,0,1-1.19,0,1.66,1.66,0,0,1-.49-.32,1.51,1.51,0,0,1-.33-.49,1.44,1.44,0,0,1-.11-.59,1.52,1.52,0,0,1,.11-.6,1.43,1.43,0,0,1,.33-.47,1.47,1.47,0,0,1,1.09-.44Zm0,.56a.86.86,0,0,0-.36.08.84.84,0,0,0-.29.2.75.75,0,0,0-.18.3.9.9,0,0,0-.07.37,1,1,0,0,0,.07.38.79.79,0,0,0,.18.29.84.84,0,0,0,.29.2,1,1,0,0,0,.72,0,.8.8,0,0,0,.28-.2.81.81,0,0,0,.19-.29,1,1,0,0,0,.07-.38.9.9,0,0,0-.07-.37.77.77,0,0,0-.19-.3.8.8,0,0,0-.28-.2A.86.86,0,0,0,77.12,46.89Z"/><path d="M80.81,46.33a1.14,1.14,0,0,1,.46.08,1,1,0,0,1,.34.24,1,1,0,0,1,.22.36,1.41,1.41,0,0,1,.07.47v1.81h-.63V47.56a.72.72,0,0,0-.16-.49.62.62,0,0,0-.46-.18.66.66,0,0,0-.48.18.69.69,0,0,0-.18.49v1.73h-.62v-2.9h.57v.3a1,1,0,0,1,.37-.27A1.35,1.35,0,0,1,80.81,46.33Z"/><path d="M85.77,46.33a1.52,1.52,0,0,1,.6.11,1.58,1.58,0,0,1,.48.33,1.43,1.43,0,0,1,.33.47,1.38,1.38,0,0,1,.13.6,1.31,1.31,0,0,1-.13.59,1.51,1.51,0,0,1-.33.49,1.66,1.66,0,0,1-.49.32,1.54,1.54,0,0,1-1.19,0,1.66,1.66,0,0,1-.49-.32,1.51,1.51,0,0,1-.33-.49,1.45,1.45,0,0,1-.12-.59,1.53,1.53,0,0,1,.12-.6,1.43,1.43,0,0,1,.33-.47,1.47,1.47,0,0,1,1.09-.44Zm0,.56a.86.86,0,0,0-.36.08.83.83,0,0,0-.47.5.9.9,0,0,0-.07.37,1,1,0,0,0,.07.38.79.79,0,0,0,.18.29.84.84,0,0,0,.29.2.78.78,0,0,0,.35.07.86.86,0,0,0,.36-.07.84.84,0,0,0,.29-.2,1,1,0,0,0,.19-.29,1,1,0,0,0,.07-.38,1,1,0,0,0-.26-.67.84.84,0,0,0-.29-.2A.82.82,0,0,0,85.77,46.89Z"/><path d="M89.43,46.93h-.69v2.36h-.62V46.93h-.41v-.54h.41v-.58a1,1,0,0,1,.29-.77,1.13,1.13,0,0,1,.75-.24,1.25,1.25,0,0,1,.4.05v.52h-.25a.73.73,0,0,0-.42.1.47.47,0,0,0-.15.4v.53h.69Z"/><path d="M92.61,45.33a1.45,1.45,0,0,1,.76.19,1.59,1.59,0,0,1,.5.5l-.44.34a1.09,1.09,0,0,0-.36-.35.9.9,0,0,0-.46-.12.78.78,0,0,0-.41.11.4.4,0,0,0-.18.36.36.36,0,0,0,0,.19.53.53,0,0,0,.11.14.81.81,0,0,0,.18.12l.21.11.44.2a2.15,2.15,0,0,1,.4.21,1.43,1.43,0,0,1,.29.24,1.17,1.17,0,0,1,.19.3,1,1,0,0,1,.06.36,1,1,0,0,1-.1.47,1,1,0,0,1-.28.35,1.36,1.36,0,0,1-.41.23,1.77,1.77,0,0,1-.52.08,1.66,1.66,0,0,1-.87-.23,1.7,1.7,0,0,1-.6-.62l.44-.34a1.55,1.55,0,0,0,.19.24,1.37,1.37,0,0,0,.22.2,1,1,0,0,0,.28.13.88.88,0,0,0,.33,0,.75.75,0,0,0,.49-.14.5.5,0,0,0,.19-.4.65.65,0,0,0,0-.2.79.79,0,0,0-.12-.15L93,47.78l-.24-.11-.43-.2-.35-.19a1.73,1.73,0,0,1-.29-.23,1.21,1.21,0,0,1-.2-.3,1,1,0,0,1,0-.8,1.1,1.1,0,0,1,.27-.34,1.22,1.22,0,0,1,.39-.21A1.41,1.41,0,0,1,92.61,45.33Z"/><path d="M96,46.33a1.33,1.33,0,0,1,.54.1,1.26,1.26,0,0,1,.43.27,1.28,1.28,0,0,1,.28.43,1.5,1.5,0,0,1,.1.52,1.64,1.64,0,0,1,0,.23,1.16,1.16,0,0,1,0,.16H95.15a.94.94,0,0,0,.31.57,1,1,0,0,0,.63.2,1.14,1.14,0,0,0,.46-.09,1.66,1.66,0,0,0,.39-.26l.3.43a1.73,1.73,0,0,1-.52.34,1.7,1.7,0,0,1-.64.13,1.64,1.64,0,0,1-.63-.12,1.39,1.39,0,0,1-.49-.32,1.37,1.37,0,0,1-.33-.48,1.54,1.54,0,0,1,0-1.19,1.35,1.35,0,0,1,.32-.48,1.43,1.43,0,0,1,.47-.33A1.44,1.44,0,0,1,96,46.33Zm0,.52a.8.8,0,0,0-.55.19.92.92,0,0,0-.29.52h1.57a.68.68,0,0,0-.22-.53A.79.79,0,0,0,96,46.85Z"/><path d="M99.49,46.36h.13l.1,0v.55h-.18a1.14,1.14,0,0,0-.33.05.59.59,0,0,0-.27.15.79.79,0,0,0-.19.25,1,1,0,0,0-.07.35v1.55h-.62v-2.9h.58v.39a.92.92,0,0,1,.37-.31A1.13,1.13,0,0,1,99.49,46.36Z"/><path d="M100.9,46.74a1.08,1.08,0,0,1,.42-.3,1.23,1.23,0,0,1,.55-.11,1.38,1.38,0,0,1,.57.11,1.42,1.42,0,0,1,.45.32,1.5,1.5,0,0,1,.3.48,1.72,1.72,0,0,1,.1.6,1.64,1.64,0,0,1-.1.6,1.31,1.31,0,0,1-.3.48,1.39,1.39,0,0,1-1,.44,1.47,1.47,0,0,1-.6-.13,1.06,1.06,0,0,1-.43-.35v.41h-.57V44.86h.62Zm.87.15a.87.87,0,0,0-.32.06.73.73,0,0,0-.28.17.79.79,0,0,0-.2.3,1.08,1.08,0,0,0-.08.42,1.1,1.1,0,0,0,.08.43.93.93,0,0,0,.2.3,1,1,0,0,0,.28.17,1.19,1.19,0,0,0,.32,0,.84.84,0,0,0,.35-.07.8.8,0,0,0,.28-.2.91.91,0,0,0,.19-.3,1.12,1.12,0,0,0,.06-.38,1.23,1.23,0,0,0-.06-.39.91.91,0,0,0-.19-.3,1,1,0,0,0-.29-.19A.77.77,0,0,0,101.77,46.89Z"/><path d="M104.32,44.9a.42.42,0,0,1,.3.12.39.39,0,0,1,.13.29.41.41,0,0,1-.13.29.42.42,0,0,1-.3.12.41.41,0,0,1-.3-.12.4.4,0,0,1-.12-.29A.38.38,0,0,1,104,45,.41.41,0,0,1,104.32,44.9Zm.31,4.39H104v-2.9h.62Z"/><path d="M106.64,46.33a1.47,1.47,0,0,1,.48.07,1,1,0,0,1,.38.23,1.12,1.12,0,0,1,.24.38,1.44,1.44,0,0,1,.09.53v1.75h-.58V49a1,1,0,0,1-.39.28,1.33,1.33,0,0,1-.54.11,1.31,1.31,0,0,1-.41-.06,1,1,0,0,1-.32-.17.9.9,0,0,1-.21-.27.94.94,0,0,1-.07-.34.74.74,0,0,1,.29-.61,1.26,1.26,0,0,1,.78-.22h.82V47.5A.61.61,0,0,0,107,47a.6.6,0,0,0-.46-.16.9.9,0,0,0-.44.11,1.54,1.54,0,0,0-.37.32l-.35-.36a1.34,1.34,0,0,1,.54-.47A1.54,1.54,0,0,1,106.64,46.33Zm-.19,2.55a.88.88,0,0,0,.29-.05,1,1,0,0,0,.24-.14.65.65,0,0,0,.16-.22.67.67,0,0,0,.06-.28v0h-.74a.67.67,0,0,0-.38.09.29.29,0,0,0-.13.26.31.31,0,0,0,.14.29A.61.61,0,0,0,106.45,48.88Z"/><path class="cls-2" d="M107.83,24c-.06-.25-.11-.46-.13-.59l-.18-1.05c-.86-5.31-2.18-13.33-7.62-17a10.35,10.35,0,0,0-6-1.82,12.62,12.62,0,0,0-2.34.23,6.71,6.71,0,0,0-4.23,3A7.3,7.3,0,0,0,86,5.49a7.6,7.6,0,0,0-1-.6A10.45,10.45,0,0,0,80.3,3.75a8.26,8.26,0,0,0-3.81.87,2.91,2.91,0,0,0-.3.17,9.13,9.13,0,0,0-2.89-1,9.9,9.9,0,0,0-1.64-.14,11.69,11.69,0,0,0-2,.19h0l-.21,0-.93.24a7,7,0,0,0-.56-.66A12,12,0,0,0,60.85.16,14.64,14.64,0,0,0,58.67,0a13,13,0,0,0-5.74,1.27,10.81,10.81,0,0,0-4.37,3.79A9.29,9.29,0,0,0,47.17,5a9.77,9.77,0,0,0-6,2.09c-.23.17-.45.36-.66.55l-.07.06a13.37,13.37,0,0,0-1,1,9.54,9.54,0,0,0-3.23-3.78L34.53,3.65l-1.88.82-.93.4A35.14,35.14,0,0,1,28,6.11c-1,.29-2,.58-2.92.91A24.54,24.54,0,0,0,14.81,4.37a14.2,14.2,0,0,0-1.75.1A15.54,15.54,0,0,0,7,6.71a11.77,11.77,0,0,0-5.09,8,10,10,0,0,0-.12,1.1,10.27,10.27,0,0,0,.83,4.49c.13.32.4,1,3.61,5.62a10,10,0,0,0-2.89.59A5.2,5.2,0,0,0,.14,30.05a5.26,5.26,0,0,0,1.25,4.73v0l0,0,0,0c3,3.31,8.27,4.54,8.86,4.67l.11,0,.11,0a20.14,20.14,0,0,0,2.94.23c.63,0,1.26,0,1.86-.1a13.15,13.15,0,0,0,4.1-1.14,11.38,11.38,0,0,0,1.61-1,10.24,10.24,0,0,0,2.08-2l.46.69c.89,1.28,2.71,2.81,6.33,2.81A22.87,22.87,0,0,0,42,35a7.29,7.29,0,0,0,2.55-1c1,2,3.1,5.45,6.87,5.45l.46,0a5.88,5.88,0,0,0,3-1.11,7.48,7.48,0,0,0,2-2.16,6.89,6.89,0,0,0,.55-1,4.09,4.09,0,0,0,3.69,2.34h19.3a5.92,5.92,0,0,0,3.07.87A6.35,6.35,0,0,0,87.3,37a9.18,9.18,0,0,0,1.48-1.45,8.58,8.58,0,0,0,.61-.84,8.06,8.06,0,0,0,.57-1c.06-.12.11-.26.17-.39a5,5,0,0,0,1.64-1.1,12.26,12.26,0,0,0,2.83-5.33c.08.27.15.55.23.84.58,2.19,1.38,5.19,4.23,6.62a6.86,6.86,0,0,0,3,.67,7.22,7.22,0,0,0,2.39-.39l.3-.09a4.88,4.88,0,0,0,3.78-5.28A34.28,34.28,0,0,0,107.83,24Z"/><path class="cls-3" d="M27.29,13.66a5.11,5.11,0,0,0-.63-1.11,6.66,6.66,0,0,0-1.89-1.66c-.28-.17-.62-.36-1-.55-1.7-.85-6.1-2.81-10.31-2.33A12.05,12.05,0,0,0,9,9.65a8.19,8.19,0,0,0-3.58,5.58q-.06.38-.09.78a6.82,6.82,0,0,0,.58,2.92c.34.84,4.87,7.27,4.87,7.27a4.44,4.44,0,0,1,.39.53,1.64,1.64,0,0,1,.19,1,1.23,1.23,0,0,1-.2.52,2.11,2.11,0,0,1-1.07.75h0a19.43,19.43,0,0,1-2.64.35,12.25,12.25,0,0,0-2.76.42A1.66,1.66,0,0,0,3.6,30.89a1.76,1.76,0,0,0,.47,1.56l0,0c2.3,2.55,7,3.57,7,3.57a14.83,14.83,0,0,0,3.85.11,9.34,9.34,0,0,0,3-.82A7.22,7.22,0,0,0,19,34.71a5,5,0,0,0,2.39-4.3C21.17,27,15.49,18.33,15.54,18v0c-1.19-3,6.65,1.05,7.88,1.08a4.76,4.76,0,0,0,1.86-.28,2.85,2.85,0,0,0,1.1-.74A4.06,4.06,0,0,0,27.29,13.66Z"/><path class="cls-4" d="M54.41,29.81A13.48,13.48,0,0,0,51.69,24a1.16,1.16,0,0,0,.72-.39c.26-.12.52-.24.76-.38a5.76,5.76,0,0,0,.71-.46A6.33,6.33,0,0,0,56,20.2l.53-2.14,0-.28h0v-.14a7.87,7.87,0,0,0-.65-3.15,9.51,9.51,0,0,0-.64-1.22L55,12.83a10.11,10.11,0,0,0-3.84-3.28,10.49,10.49,0,0,0-2.65-.9h0A6.26,6.26,0,0,0,43.3,9.88c-.16.12-.31.25-.47.39h0l0,0h0a13.43,13.43,0,0,0-2.91,4A39.51,39.51,0,0,0,36.71,25.1c-.14.83-.19,1.33-.2,1.39a9.48,9.48,0,0,0,0,1.37h-.08l.22,1.08h0l.15.64h.06a2.6,2.6,0,0,0,.4.69,4.52,4.52,0,0,0,4.85,1A4.65,4.65,0,0,0,42.7,31,4.54,4.54,0,0,0,44,29.67a11.2,11.2,0,0,0,1.28-2.75l.14-.38c.24.75.54,1.63.88,2.54s.77,1.92,1.14,2.7c1.39,2.91,2.72,4.21,4.17,4.1a2.21,2.21,0,0,0,1.16-.45,4,4,0,0,0,1-1.17,4.4,4.4,0,0,0,.53-1.21A7.28,7.28,0,0,0,54.41,29.81Z"/><path class="cls-5" d="M75.27,8.39a6,6,0,0,0-2.55-1.06,7.11,7.11,0,0,0-2.43,0l-.18,0a8.8,8.8,0,0,0-1.4.41,13.77,13.77,0,0,0-2.21,1.1,4,4,0,0,0-.27-1.57A4.55,4.55,0,0,0,65.32,6a8.61,8.61,0,0,0-5-2.27,10.09,10.09,0,0,0-5.84.78c-3.63,1.8-4.55,5.12-3.28,8A21,21,0,0,0,56,19.1a35.47,35.47,0,0,0,3.09,2.58l2.6,1.73c1.71,1,4.92,2.67,7.17,2.25a3.18,3.18,0,0,0,.9-.3c3.28-1.77,9.14-7,8.66-11.83a5.82,5.82,0,0,0-.57-1.85h0a9.16,9.16,0,0,0-1.57-2.35A11.41,11.41,0,0,0,75.27,8.39Z"/><path class="cls-6" d="M87.56,26.18c0-.81-.11-1.67-.22-2.64v-.11l-.15-1.12c-.15-1.09-.32-2.15-.48-3.08l-.22-1.41-.15-1.05c0-.4-.08-.9-.12-1.42-.06-.87-.12-1.83-.27-2.76L85.58,11h0l-.15-.48h0a2.44,2.44,0,0,1-.1-.24,6.07,6.07,0,0,0-.54-1,4,4,0,0,0-.86-.87A4.86,4.86,0,0,0,83.37,8a6.24,6.24,0,0,0-5.25-.26,3,3,0,0,0-.91.72,2.57,2.57,0,0,0-.58,1.41,2.81,2.81,0,0,0,0,.58l0,.43,0,.21s1.17,11.21,1.61,13.57a44.14,44.14,0,0,0,1.22,5.18h0l.38,1h0l.29.78h0a7.66,7.66,0,0,0,1.16,2,2.56,2.56,0,0,0,3.8.49,5.52,5.52,0,0,0,.92-.9,5.85,5.85,0,0,0,.34-.48,4.25,4.25,0,0,0,.35-.63A12.83,12.83,0,0,0,87.56,26.18Z"/><path class="cls-7" d="M33.14,8.14c-5.37,2.33-14.42,2.49-12.45,10.2,1.53,6,2.26,10.82,5.83,16C29,38,41.62,33.07,41.85,29.54c.5-7.47-8.33-3-10.42-2.23a3.23,3.23,0,0,0-.64-1.62c2-.92,6.43-2.13,6.2-4.68-.41-4.53-3.48-3.87-5-3.24-4,1.72-3.87,2.3-4.42-.09,1.91-1,13.7-4.58,6.46-9.94Z"/><g class="cls-8"><path class="cls-9" d="M92.27,7.25c-1.11.21-2.14,1.45-3.23,3.9a53.26,53.26,0,0,0-2.43,7c-1.4,5-2.37,9.91-2.38,10l-.08.39.28.28c1.15,1.16,3.85,1.8,4.77.84,1.29-1.33,1.56-2.59,2.59-5.76.27-.81.09-1.87,2-2,1.28-.11,2.94-.33,3.53,2.05.1.39.4,1.06.62,1.81.59,2,1,4.52,2.67,5.37a3.79,3.79,0,0,0,2.64.1c1.08-.37,1.72-.3,1.69-1.94a30.51,30.51,0,0,0-.63-4.46c-.08-.33-.14-.61-.18-.8L104,23c-.77-4.71-1.94-11.83-6.11-14.67A7.24,7.24,0,0,0,92.27,7.25Z"/></g><rect class="cls-10" x="60.55" y="28.12" width="21.36" height="5.78" rx="0.52"/><path class="cls-2" d="M62.52,32.32l.15-.39a1.8,1.8,0,0,0,.71.13c.32,0,.55-.1.55-.34,0-.55-1.33-.41-1.33-1.34,0-.5.46-.73.93-.73a1.78,1.78,0,0,1,.79.17l-.15.38a1.81,1.81,0,0,0-.62-.11c-.29,0-.43.11-.43.28,0,.47,1.35.44,1.35,1.32,0,.58-.52.82-1.09.82A1.6,1.6,0,0,1,62.52,32.32Z"/><path class="cls-2" d="M65.29,29.91h1.58v.39H65.78V31h1v.36h-1v.71H67v.39H65.29Z"/><path class="cls-2" d="M69.1,32l-.35-.47h-.43v.93h-.5V29.91h.94c.54,0,.92.25.92.8a.72.72,0,0,1-.43.69l.31.4a1,1,0,0,0,.55.33l-.11.38A1.21,1.21,0,0,1,69.1,32Zm-.51-.82c.38,0,.58-.14.58-.44s-.14-.43-.49-.43h-.36v.87Z"/><path class="cls-2" d="M70.84,29.91h.82c.61,0,.9.24.9.67a.6.6,0,0,1-.29.5h0a.65.65,0,0,1,.48.61c0,.45-.27.76-1,.76h-.93ZM71.62,31c.31,0,.45-.08.45-.33s-.17-.36-.5-.36h-.24V31Zm.08,1.09c.34,0,.55-.08.55-.36s-.22-.37-.62-.37h-.3v.73Z"/><path class="cls-2" d="M73.61,29.91h.5v2.55h-.5Z"/><path class="cls-2" d="M75.84,29.91h.64l.89,2.55h-.52l-.28-.82h-.92l-.31.82h-.5Zm.61,1.36-.31-1.05-.35,1.05Z"/></g></g></g></svg>