<svg xmlns="http://www.w3.org/2000/svg" viewBox="0 0 27.32 27.32"><defs><style>.cls-1{fill:none;stroke:#02808f;stroke-miterlimit:10;stroke-width:1.5px;}.cls-2{fill:#02808f;}</style></defs><g id="Layer_2" data-name="Layer 2"><g id="microsite-_layout_partner" data-name="microsite- layout partner"><path class="cls-1" d="M13.66,26.57h0A12.91,12.91,0,0,1,.75,13.66h0A12.91,12.91,0,0,1,13.66.75h0A12.91,12.91,0,0,1,26.57,13.66h0A12.91,12.91,0,0,1,13.66,26.57Z"/><path class="cls-2" d="M13.66,7.86c1.89,0,2.12,0,2.86,0a4.14,4.14,0,0,1,1.32.24,2.19,2.19,0,0,1,.81.53,2.23,2.23,0,0,1,.53.82,3.8,3.8,0,0,1,.24,1.31c0,.75,0,1,0,2.86s0,2.12,0,2.86a3.87,3.87,0,0,1-.24,1.32,2.37,2.37,0,0,1-1.34,1.34,3.87,3.87,0,0,1-1.32.24c-.74,0-1,0-2.86,0s-2.11,0-2.86,0a3.8,3.8,0,0,1-1.31-.24,2.23,2.23,0,0,1-.82-.53,2.19,2.19,0,0,1-.53-.81,4.14,4.14,0,0,1-.24-1.32c0-.74,0-1,0-2.86s0-2.11,0-2.86a4.06,4.06,0,0,1,.24-1.31A2.32,2.32,0,0,1,9.49,8.14,4.06,4.06,0,0,1,10.8,7.9c.75,0,1,0,2.86,0m0-1.28c-1.92,0-2.16,0-2.92,0A5.51,5.51,0,0,0,9,7,3.68,3.68,0,0,0,7,9a5.51,5.51,0,0,0-.33,1.72c0,.76,0,1,0,2.92s0,2.17,0,2.92A5.51,5.51,0,0,0,7,18.3a3.52,3.52,0,0,0,.82,1.25A3.39,3.39,0,0,0,9,20.37a5.51,5.51,0,0,0,1.72.33c.76,0,1,0,2.92,0s2.17,0,2.92,0a5.51,5.51,0,0,0,1.72-.33,3.68,3.68,0,0,0,2.07-2.07,5.51,5.51,0,0,0,.33-1.72c0-.75,0-1,0-2.92s0-2.16,0-2.92A5.51,5.51,0,0,0,20.37,9a3.39,3.39,0,0,0-.82-1.25A3.52,3.52,0,0,0,18.3,7a5.51,5.51,0,0,0-1.72-.33c-.75,0-1,0-2.92,0"/><path class="cls-2" d="M13.66,10a3.64,3.64,0,1,0,3.64,3.63A3.62,3.62,0,0,0,13.66,10m0,6A2.36,2.36,0,1,1,16,13.66,2.36,2.36,0,0,1,13.66,16"/><path class="cls-2" d="M18.29,9.88A.85.85,0,1,1,17.44,9a.85.85,0,0,1,.85.85"/></g></g></svg>