<svg xmlns="http://www.w3.org/2000/svg" viewBox="0 0 27.32 27.32"><defs><style>.cls-1{fill:#02808f;}.cls-2{fill:none;stroke:#02808f;stroke-miterlimit:10;stroke-width:1.5px;}</style></defs><g id="Layer_2" data-name="Layer 2"><g id="microsite-_layout_partner" data-name="microsite- layout partner"><path class="cls-1" d="M11.69,21.47h3.15V13.6H17L17.26,11H14.84V9.46c0-.62.12-.87.72-.87h1.7V5.86H15.09c-2.34,0-3.4,1-3.4,3V11H10.06v2.67h1.63Z"/><path class="cls-2" d="M13.66,26.57h0A12.91,12.91,0,0,1,.75,13.66h0A12.91,12.91,0,0,1,13.66.75h0A12.91,12.91,0,0,1,26.57,13.66h0A12.91,12.91,0,0,1,13.66,26.57Z"/></g></g></svg>