<svg xmlns="http://www.w3.org/2000/svg" viewBox="0 0 27.28 27.28"><defs><style>.cls-1{fill:none;stroke:#02808f;stroke-miterlimit:10;stroke-width:1.5px;}.cls-2{fill:#02808f;}.cls-3{fill:#eff2bc;}</style></defs><g id="Layer_2" data-name="Layer 2"><g id="microsite-_layout_partner" data-name="microsite- layout partner"><path class="cls-1" d="M13.64,26.53h0A12.89,12.89,0,0,1,.75,13.64h0A12.89,12.89,0,0,1,13.64.75h0A12.89,12.89,0,0,1,26.53,13.64h0A12.89,12.89,0,0,1,13.64,26.53Z"/><path class="cls-2" d="M23.39,8.64a2.57,2.57,0,0,0-1.81-1.83c-1.6-.44-8-.44-8-.44s-6.41,0-8,.44A2.57,2.57,0,0,0,3.75,8.64a27.28,27.28,0,0,0-.43,5,27.28,27.28,0,0,0,.43,5,2.61,2.61,0,0,0,1.81,1.84c1.6.43,8,.43,8,.43s6.41,0,8-.43a2.61,2.61,0,0,0,1.81-1.84,27.28,27.28,0,0,0,.43-5A27.28,27.28,0,0,0,23.39,8.64Z"/><polygon class="cls-3" points="11.47 16.71 11.47 10.57 16.83 13.64 11.47 16.71"/></g></g></svg>