<svg xmlns="http://www.w3.org/2000/svg" viewBox="0 0 27.32 27.32"><defs><style>.cls-1{fill:none;stroke:#02808f;stroke-miterlimit:10;stroke-width:1.5px;}.cls-2{fill:#02808f;}</style></defs><g id="Layer_2" data-name="Layer 2"><g id="microsite-_layout_partner" data-name="microsite- layout partner"><path class="cls-1" d="M13.66,26.57h0A12.91,12.91,0,0,1,.75,13.66h0A12.91,12.91,0,0,1,13.66.75h0A12.91,12.91,0,0,1,26.57,13.66h0A12.91,12.91,0,0,1,13.66,26.57Z"/><path class="cls-2" d="M6.78,18a8,8,0,0,0,12.35-7.12,5.8,5.8,0,0,0,1.41-1.47,5.57,5.57,0,0,1-1.62.45,2.83,2.83,0,0,0,1.24-1.56A5.62,5.62,0,0,1,18.37,9a2.83,2.83,0,0,0-4.81,2.58A8,8,0,0,1,7.74,8.59a2.83,2.83,0,0,0,.87,3.77A3,3,0,0,1,7.33,12,2.84,2.84,0,0,0,9.6,14.81a2.89,2.89,0,0,1-1.28,0,2.82,2.82,0,0,0,2.64,2A5.62,5.62,0,0,1,6.78,18Z"/></g></g></svg>